<svg width="26" height="38" viewBox="0 0 26 38" fill="none" xmlns="http://www.w3.org/2000/svg">
<path d="M13 8.91666C14.2156 8.91666 15.3814 9.39954 16.2409 10.2591C17.1004 11.1186 17.5833 12.2844 17.5833 13.5C17.5833 14.1019 17.4648 14.6979 17.2344 15.254C17.0041 15.81 16.6665 16.3153 16.2409 16.7409C15.8153 17.1665 15.31 17.5041 14.754 17.7344C14.1979 17.9648 13.6019 18.0833 13 18.0833C11.7844 18.0833 10.6186 17.6004 9.75909 16.7409C8.89954 15.8814 8.41666 14.7156 8.41666 13.5C8.41666 12.2844 8.89954 11.1186 9.75909 10.2591C10.6186 9.39954 11.7844 8.91666 13 8.91666ZM13 0.666656C16.4036 0.666656 19.6678 2.01874 22.0745 4.42545C24.4812 6.83217 25.8333 10.0964 25.8333 13.5C25.8333 23.125 13 37.3333 13 37.3333C13 37.3333 0.166656 23.125 0.166656 13.5C0.166656 10.0964 1.51874 6.83217 3.92545 4.42545C6.33217 2.01874 9.59638 0.666656 13 0.666656ZM13 4.33332C10.5688 4.33332 8.23726 5.29909 6.51818 7.01818C4.79909 8.73726 3.83332 11.0688 3.83332 13.5C3.83332 15.3333 3.83332 19 13 31.3017C22.1667 19 22.1667 15.3333 22.1667 13.5C22.1667 11.0688 21.2009 8.73726 19.4818 7.01818C17.7627 5.29909 15.4311 4.33332 13 4.33332Z" fill="#505050"/>
</svg>
