<svg width="117" height="34" viewBox="0 0 117 34" fill="none" xmlns="http://www.w3.org/2000/svg">
<path d="M4.38178 8.22167H2.07213V13.0567H0V0.508065H4.19341C5.56937 0.508065 6.63137 0.832697 7.37941 1.48196C8.12746 2.13122 8.50148 3.07065 8.50148 4.30023C8.50148 5.1391 8.30764 5.84295 7.91997 6.41177C7.53776 6.97485 7.00266 7.40865 6.31468 7.71317L8.99289 12.9446V13.0567H6.77333L4.38178 8.22167ZM2.07213 6.4721H4.2016C4.9005 6.4721 5.44651 6.28824 5.83965 5.92051C6.23278 5.54704 6.42934 5.03855 6.42934 4.39503C6.42934 3.72278 6.24643 3.2028 5.8806 2.83507C5.52023 2.46735 4.97967 2.27774 4.25893 2.26625H2.07213V6.4721Z" fill="#00798B"/>
<path d="M19.5665 8.97148C19.4464 10.3102 18.9768 11.3559 18.1578 12.1086C17.3388 12.8556 16.2495 13.229 14.8899 13.229C13.9398 13.229 13.1017 12.9935 12.3755 12.5223C11.6547 12.0454 11.0978 11.3703 10.7047 10.497C10.3115 9.62362 10.1068 8.6095 10.0904 7.45462V6.28249C10.0904 5.09888 10.2897 4.05603 10.6883 3.15396C11.0869 2.25188 11.6574 1.55666 12.4 1.06827C13.1481 0.579886 14.0108 0.335693 14.9882 0.335693C16.3041 0.335693 17.3633 0.712037 18.166 1.46472C18.9686 2.21741 19.4355 3.28036 19.5665 4.65359H17.5026C17.4043 3.75151 17.1531 3.10225 16.7491 2.7058C16.3505 2.3036 15.7635 2.1025 14.9882 2.1025C14.0872 2.1025 13.3938 2.45011 12.9078 3.14534C12.4273 3.83483 12.1816 4.84894 12.1707 6.18769V7.29948C12.1707 8.65547 12.4 9.6897 12.8587 10.4022C13.3228 11.1146 13.9999 11.4709 14.8899 11.4709C15.7034 11.4709 16.315 11.2784 16.7245 10.8934C17.134 10.5085 17.3934 9.86781 17.5026 8.97148H19.5665Z" fill="#00798B"/>
<path d="M23.6125 13.0567H21.5485V0.508065H23.6125V13.0567Z" fill="#00798B"/>
<path d="M39.477 11.4278C39.0456 12.0196 38.4478 12.4677 37.6833 12.7723C36.9189 13.0768 36.0507 13.229 35.0788 13.229C34.0796 13.229 33.1951 12.9906 32.4252 12.5137C31.6553 12.0368 31.0601 11.3559 30.6397 10.4711C30.2247 9.58053 30.0091 8.54343 29.9927 7.35981V6.3773C29.9927 4.48122 30.424 3.0017 31.2867 1.93874C32.1494 0.870044 33.3534 0.335693 34.8986 0.335693C36.2255 0.335693 37.2793 0.680436 38.0601 1.36992C38.8409 2.0594 39.3105 3.05341 39.4688 4.35194H37.4376C37.2083 2.84082 36.3756 2.08526 34.9396 2.08526C34.0114 2.08526 33.3043 2.43862 32.8183 3.14534C32.3378 3.84632 32.0894 4.87767 32.073 6.2394V7.20468C32.073 8.56066 32.3433 9.615 32.8838 10.3677C33.4299 11.1146 34.1861 11.4881 35.1525 11.4881C36.2118 11.4881 36.9653 11.2353 37.413 10.7297V8.27338H34.956V6.61862H39.477V11.4278Z" fill="#00798B"/>
<path d="M46.1357 8.22167H43.826V13.0567H41.7539V0.508065H45.9473C47.3232 0.508065 48.3852 0.832697 49.1333 1.48196C49.8813 2.13122 50.2554 3.07065 50.2554 4.30023C50.2554 5.1391 50.0615 5.84295 49.6738 6.41177C49.2916 6.97485 48.7565 7.40865 48.0686 7.71317L50.7468 12.9446V13.0567H48.5272L46.1357 8.22167ZM43.826 6.4721H45.9555C46.6544 6.4721 47.2004 6.28824 47.5935 5.92051C47.9867 5.54704 48.1832 5.03855 48.1832 4.39503C48.1832 3.72278 48.0003 3.2028 47.6345 2.83507C47.2741 2.46735 46.7335 2.27774 46.0128 2.26625H43.826V6.4721Z" fill="#00798B"/>
<path d="M61.7381 7.10988C61.7381 8.33946 61.5361 9.41965 61.132 10.3505C60.728 11.2755 60.1492 11.988 59.3957 12.4879C58.6476 12.982 57.7849 13.229 56.8075 13.229C55.8411 13.229 54.9784 12.982 54.2194 12.4879C53.4659 11.988 52.8817 11.2784 52.4667 10.3591C52.0572 9.43976 51.8497 8.37967 51.8443 7.17882V6.4721C51.8443 5.24827 52.049 4.16808 52.4585 3.23153C52.8735 2.29498 53.455 1.57964 54.203 1.08551C54.9566 0.585631 55.8193 0.335693 56.7912 0.335693C57.7631 0.335693 58.6231 0.582758 59.3711 1.07689C60.1246 1.56527 60.7061 2.27199 61.1156 3.19705C61.5251 4.11636 61.7326 5.18794 61.7381 6.41177V7.10988ZM59.6659 6.45486C59.6659 5.06441 59.4148 3.99858 58.9124 3.25738C58.4156 2.51619 57.7085 2.14559 56.7912 2.14559C55.8957 2.14559 55.1941 2.51619 54.6863 3.25738C54.1839 3.99283 53.9273 5.03568 53.9164 6.38592V7.10988C53.9164 8.48884 54.1703 9.55467 54.6781 10.3074C55.1913 11.06 55.9012 11.4364 56.8075 11.4364C57.7249 11.4364 58.4292 11.0687 58.9206 10.3332C59.4175 9.59776 59.6659 8.52332 59.6659 7.10988V6.45486Z" fill="#00798B"/>
<path d="M72.5246 0.508065V8.89392C72.5246 10.2269 72.1179 11.2841 71.3043 12.0655C70.4962 12.8412 69.4178 13.229 68.0691 13.229C66.7041 13.229 65.6203 12.847 64.8176 12.0828C64.015 11.3129 63.6136 10.247 63.6136 8.8853V0.508065H65.6776V8.90253C65.6776 9.74141 65.8796 10.3821 66.2837 10.8245C66.6877 11.2669 67.2829 11.4881 68.0691 11.4881C69.6635 11.4881 70.4607 10.6033 70.4607 8.83359V0.508065H72.5246Z" fill="#00798B"/>
<path d="M76.8163 8.39404V13.0567H74.7442V0.508065H79.3062C80.6384 0.508065 81.695 0.872917 82.4758 1.60262C83.2621 2.33232 83.6552 3.2976 83.6552 4.49845C83.6552 5.72803 83.2702 6.68469 82.5004 7.36843C81.7359 8.05217 80.663 8.39404 79.2816 8.39404H76.8163ZM76.8163 6.64447H79.3062C80.0433 6.64447 80.6057 6.46348 80.9934 6.1015C81.381 5.73378 81.5749 5.20517 81.5749 4.51569C81.5749 3.8377 81.3783 3.2976 80.9852 2.8954C80.592 2.48746 80.0515 2.27774 79.3635 2.26625H76.8163V6.64447Z" fill="#00798B"/>
<path d="M0 33.229V20.6804H3.5218C4.57562 20.6804 5.50931 20.9275 6.32287 21.4216C7.1419 21.9157 7.77527 22.6167 8.22301 23.5245C8.67074 24.4323 8.89461 25.4723 8.89461 26.6444V27.2736C8.89461 28.463 8.66801 29.5087 8.21482 30.4107C7.76708 31.3128 7.12551 32.008 6.29011 32.4964C5.46016 32.9848 4.50737 33.229 3.43171 33.229H0ZM2.07213 22.4386V31.4881H3.42352C4.5101 31.4881 5.34277 31.1318 5.92155 30.4194C6.50578 29.7012 6.80336 28.6727 6.81429 27.3339V26.6358C6.81429 25.2741 6.53308 24.2341 5.97069 23.5159C5.40829 22.7977 4.592 22.4386 3.5218 22.4386H2.07213Z" fill="#00798B"/>
<path d="M17.9285 27.627H13.0307V31.4881H18.7557V33.229H10.9585V20.6804H18.6983V22.4386H13.0307V25.9032H17.9285V27.627Z" fill="#00798B"/>
<path d="M24.6445 30.4969L27.6748 20.6804H29.9517L25.66 33.229H23.6534L19.3781 20.6804H21.6468L24.6445 30.4969Z" fill="#00798B"/>
<path d="M38.273 27.627H33.3753V31.4881H39.1002V33.229H31.3031V20.6804H39.0429V22.4386H33.3753V25.9032H38.273V27.627Z" fill="#00798B"/>
<path d="M42.8596 31.4881H48.2733V33.229H40.7874V20.6804H42.8596V31.4881Z" fill="#00798B"/>
<path d="M58.8551 27.2822C58.8551 28.5118 58.6531 29.592 58.249 30.5228C57.845 31.4478 57.2662 32.1603 56.5127 32.6602C55.7647 33.1543 54.902 33.4014 53.9246 33.4014C52.9581 33.4014 52.0954 33.1543 51.3365 32.6602C50.583 32.1603 49.9987 31.4507 49.5838 30.5314C49.1742 29.6121 48.9668 28.552 48.9613 27.3512V26.6444C48.9613 25.4206 49.166 24.3404 49.5756 23.4039C49.9905 22.4673 50.572 21.752 51.3201 21.2578C52.0736 20.758 52.9363 20.508 53.9082 20.508C54.8801 20.508 55.7401 20.7551 56.4881 21.2492C57.2416 21.7376 57.8231 22.4443 58.2327 23.3694C58.6422 24.2887 58.8497 25.3603 58.8551 26.5841V27.2822ZM56.783 26.6272C56.783 25.2367 56.5318 24.1709 56.0295 23.4297C55.5326 22.6885 54.8255 22.3179 53.9082 22.3179C53.0127 22.3179 52.3111 22.6885 51.8033 23.4297C51.301 24.1652 51.0443 25.208 51.0334 26.5583V27.2822C51.0334 28.6612 51.2873 29.727 51.7951 30.4797C52.3084 31.2324 53.0182 31.6087 53.9246 31.6087C54.8419 31.6087 55.5463 31.241 56.0377 30.5056C56.5345 29.7701 56.783 28.6957 56.783 27.2822V26.6272Z" fill="#00798B"/>
<path d="M62.9912 28.5664V33.229H60.9191V20.6804H65.481C66.8133 20.6804 67.8699 21.0453 68.6507 21.775C69.4369 22.5047 69.83 23.4699 69.83 24.6708C69.83 25.9004 69.4451 26.857 68.6752 27.5408C67.9108 28.2245 66.8379 28.5664 65.4565 28.5664H62.9912ZM62.9912 26.8168H65.481C66.2181 26.8168 66.7805 26.6358 67.1682 26.2738C67.5559 25.9061 67.7497 25.3775 67.7497 24.688C67.7497 24.01 67.5532 23.4699 67.16 23.0677C66.7669 22.6598 66.2263 22.4501 65.5384 22.4386H62.9912V26.8168Z" fill="#00798B"/>
<path d="M74.3347 20.6804L77.7746 30.2987L81.2063 20.6804H83.8845V33.229H81.8206V29.0921L82.0253 23.559L78.5035 33.229H77.0211L73.5075 23.5676L73.7122 29.0921V33.229H71.6483V20.6804H74.3347Z" fill="#00798B"/>
<path d="M93.3115 27.627H88.4137V31.4881H94.1387V33.229H86.3416V20.6804H94.0814V22.4386H88.4137V25.9032H93.3115V27.627Z" fill="#00798B"/>
<path d="M105.286 33.229H103.213L97.898 24.326V33.229H95.8259V20.6804H97.898L103.23 29.6178V20.6804H105.286V33.229Z" fill="#00798B"/>
<path d="M116.105 22.4386H112.387V33.229H110.331V22.4386H106.645V20.6804H116.105V22.4386Z" fill="#00798B"/>
</svg>
