<svg width="98" height="37" viewBox="0 0 98 37" fill="none" xmlns="http://www.w3.org/2000/svg">
<path d="M2.224 0.964H6.882C7.494 0.964 8.072 1.02633 8.616 1.151C9.17133 1.26433 9.653 1.46267 10.061 1.746C10.4803 2.018 10.809 2.392 11.047 2.868C11.2963 3.33267 11.421 3.91633 11.421 4.619C11.421 5.469 11.2 6.19433 10.758 6.795C10.316 7.38433 9.67 7.75833 8.82 7.917L11.88 13H8.701L6.185 8.189H4.876V13H2.224V0.964ZM4.876 5.945H6.44C6.678 5.945 6.92733 5.93933 7.188 5.928C7.46 5.90533 7.70367 5.85433 7.919 5.775C8.13433 5.68433 8.31 5.54833 8.446 5.367C8.59333 5.18567 8.667 4.93067 8.667 4.602C8.667 4.296 8.60467 4.05233 8.48 3.871C8.35533 3.68967 8.19667 3.55367 8.004 3.463C7.81133 3.361 7.59033 3.293 7.341 3.259C7.09167 3.225 6.848 3.208 6.61 3.208H4.876V5.945ZM20.7444 11.572C20.3364 12.0933 19.8208 12.4957 19.1974 12.779C18.5741 13.0623 17.9281 13.204 17.2594 13.204C16.6248 13.204 16.0241 13.102 15.4574 12.898C14.9021 12.694 14.4148 12.405 13.9954 12.031C13.5874 11.6457 13.2644 11.1867 13.0264 10.654C12.7884 10.1213 12.6694 9.52633 12.6694 8.869C12.6694 8.21167 12.7884 7.61667 13.0264 7.084C13.2644 6.55133 13.5874 6.098 13.9954 5.724C14.4148 5.33867 14.9021 5.044 15.4574 4.84C16.0241 4.636 16.6248 4.534 17.2594 4.534C17.8488 4.534 18.3814 4.636 18.8574 4.84C19.3448 5.044 19.7528 5.33867 20.0814 5.724C20.4214 6.098 20.6821 6.55133 20.8634 7.084C21.0448 7.61667 21.1354 8.21167 21.1354 8.869V9.668H15.2194C15.3214 10.1553 15.5424 10.5463 15.8824 10.841C16.2224 11.1243 16.6418 11.266 17.1404 11.266C17.5598 11.266 17.9111 11.1753 18.1944 10.994C18.4891 10.8013 18.7441 10.5577 18.9594 10.263L20.7444 11.572ZM18.5854 7.934C18.5968 7.50333 18.4551 7.135 18.1604 6.829C17.8658 6.523 17.4861 6.37 17.0214 6.37C16.7381 6.37 16.4888 6.41533 16.2734 6.506C16.0581 6.59667 15.8711 6.71567 15.7124 6.863C15.5651 6.999 15.4461 7.16333 15.3554 7.356C15.2761 7.53733 15.2308 7.73 15.2194 7.934H18.5854ZM27.8712 11.963H27.8372C27.5538 12.405 27.1742 12.7223 26.6982 12.915C26.2335 13.1077 25.7405 13.204 25.2192 13.204C24.8338 13.204 24.4598 13.1473 24.0972 13.034C23.7458 12.932 23.4342 12.7733 23.1622 12.558C22.8902 12.3427 22.6748 12.0763 22.5162 11.759C22.3575 11.4417 22.2782 11.0733 22.2782 10.654C22.2782 10.178 22.3632 9.77567 22.5332 9.447C22.7145 9.11833 22.9525 8.84633 23.2472 8.631C23.5532 8.41567 23.8988 8.25133 24.2842 8.138C24.6695 8.01333 25.0662 7.92267 25.4742 7.866C25.8935 7.80933 26.3072 7.77533 26.7152 7.764C27.1345 7.75267 27.5198 7.747 27.8712 7.747C27.8712 7.29367 27.7068 6.93667 27.3782 6.676C27.0608 6.404 26.6812 6.268 26.2392 6.268C25.8198 6.268 25.4345 6.35867 25.0832 6.54C24.7432 6.71 24.4372 6.948 24.1652 7.254L22.8052 5.86C23.2812 5.418 23.8365 5.08933 24.4712 4.874C25.1058 4.64733 25.7632 4.534 26.4432 4.534C27.1912 4.534 27.8032 4.63033 28.2792 4.823C28.7665 5.00433 29.1518 5.27633 29.4352 5.639C29.7298 6.00167 29.9338 6.44933 30.0472 6.982C30.1605 7.50333 30.2172 8.10967 30.2172 8.801V13H27.8712V11.963ZM27.2422 9.379C27.0495 9.379 26.8058 9.39033 26.5112 9.413C26.2278 9.42433 25.9502 9.46967 25.6782 9.549C25.4175 9.62833 25.1908 9.74733 24.9982 9.906C24.8168 10.0647 24.7262 10.2857 24.7262 10.569C24.7262 10.875 24.8565 11.1017 25.1172 11.249C25.3778 11.3963 25.6498 11.47 25.9332 11.47C26.1825 11.47 26.4205 11.436 26.6472 11.368C26.8852 11.3 27.0948 11.2037 27.2762 11.079C27.4575 10.9543 27.5992 10.7957 27.7012 10.603C27.8145 10.4103 27.8712 10.1837 27.8712 9.923V9.379H27.2422ZM31.851 0.147999H34.401V13H31.851V0.147999ZM36.658 0.964H44.835V3.412H39.31V5.656H44.529V8.104H39.31V10.552H45.141V13H36.658V0.964ZM51.616 7.169C51.242 6.70433 50.749 6.472 50.137 6.472C49.9217 6.472 49.712 6.523 49.508 6.625C49.304 6.727 49.202 6.90267 49.202 7.152C49.202 7.356 49.304 7.509 49.508 7.611C49.7234 7.70167 49.9897 7.78667 50.307 7.866C50.6357 7.934 50.9814 8.01333 51.344 8.104C51.718 8.18333 52.0637 8.31367 52.381 8.495C52.7097 8.67633 52.976 8.92567 53.18 9.243C53.3954 9.549 53.503 9.96267 53.503 10.484C53.503 11.0167 53.384 11.4587 53.146 11.81C52.9194 12.15 52.6247 12.4277 52.262 12.643C51.8994 12.847 51.4914 12.9887 51.038 13.068C50.5847 13.1587 50.137 13.204 49.695 13.204C49.117 13.204 48.5334 13.1247 47.944 12.966C47.3547 12.796 46.856 12.5013 46.448 12.082L47.995 10.365C48.233 10.6597 48.4937 10.8863 48.777 11.045C49.0717 11.1923 49.4117 11.266 49.797 11.266C50.0917 11.266 50.358 11.2263 50.596 11.147C50.834 11.0563 50.953 10.8977 50.953 10.671C50.953 10.4557 50.8454 10.297 50.63 10.195C50.426 10.0817 50.1597 9.991 49.831 9.923C49.5137 9.84367 49.168 9.76433 48.794 9.685C48.4314 9.59433 48.0857 9.464 47.757 9.294C47.4397 9.124 47.1734 8.886 46.958 8.58C46.754 8.26267 46.652 7.84333 46.652 7.322C46.652 6.83467 46.7484 6.41533 46.941 6.064C47.145 5.71267 47.4057 5.42367 47.723 5.197C48.0517 4.97033 48.4257 4.806 48.845 4.704C49.2644 4.59067 49.6894 4.534 50.12 4.534C50.664 4.534 51.2137 4.61333 51.769 4.772C52.3244 4.93067 52.7947 5.214 53.18 5.622L51.616 7.169ZM57.4622 3.31H54.0282V0.964H63.5482V3.31H60.1142V13H57.4622V3.31ZM64.9969 0.964H73.1739V3.412H67.6489V5.656H72.8679V8.104H67.6489V10.552H73.4799V13H64.9969V0.964ZM83.4739 4.092C83.2132 3.77467 82.8902 3.531 82.5049 3.361C82.1309 3.191 81.6946 3.106 81.1959 3.106C80.6972 3.106 80.2326 3.20233 79.8019 3.395C79.3826 3.58767 79.0142 3.85967 78.6969 4.211C78.3909 4.551 78.1472 4.959 77.9659 5.435C77.7959 5.911 77.7109 6.42667 77.7109 6.982C77.7109 7.54867 77.7959 8.07 77.9659 8.546C78.1472 9.01067 78.3909 9.41867 78.6969 9.77C79.0029 10.11 79.3599 10.3763 79.7679 10.569C80.1872 10.7617 80.6349 10.858 81.1109 10.858C81.6549 10.858 82.1366 10.7447 82.5559 10.518C82.9752 10.2913 83.3209 9.974 83.5929 9.566L85.8029 11.215C85.2929 11.929 84.6469 12.456 83.8649 12.796C83.0829 13.136 82.2782 13.306 81.4509 13.306C80.5102 13.306 79.6432 13.1587 78.8499 12.864C78.0566 12.5693 77.3709 12.15 76.7929 11.606C76.2149 11.0507 75.7616 10.382 75.4329 9.6C75.1156 8.818 74.9569 7.94533 74.9569 6.982C74.9569 6.01867 75.1156 5.146 75.4329 4.364C75.7616 3.582 76.2149 2.919 76.7929 2.375C77.3709 1.81967 78.0566 1.39467 78.8499 1.1C79.6432 0.805333 80.5102 0.658 81.4509 0.658C81.7909 0.658 82.1422 0.692 82.5049 0.76C82.8789 0.816666 83.2416 0.913 83.5929 1.049C83.9556 1.185 84.3012 1.36633 84.6299 1.593C84.9586 1.81967 85.2532 2.09733 85.5139 2.426L83.4739 4.092ZM87.2406 0.964H89.8926V5.452H95.0436V0.964H97.6956V13H95.0436V7.798H89.8926V13H87.2406V0.964ZM6.185 23.964H8.378L13.614 36H10.622L9.585 33.45H4.91L3.907 36H0.983L6.185 23.964ZM7.205 27.466L5.743 31.206H8.684L7.205 27.466ZM25.7216 35.15C24.9396 35.558 24.1236 35.8527 23.2736 36.034C22.4236 36.2153 21.5566 36.306 20.6726 36.306C19.7319 36.306 18.8649 36.1587 18.0716 35.864C17.2783 35.5693 16.5926 35.15 16.0146 34.606C15.4366 34.0507 14.9833 33.382 14.6546 32.6C14.3373 31.818 14.1786 30.9453 14.1786 29.982C14.1786 29.0187 14.3373 28.146 14.6546 27.364C14.9833 26.582 15.4366 25.919 16.0146 25.375C16.5926 24.8197 17.2783 24.3947 18.0716 24.1C18.8649 23.8053 19.7319 23.658 20.6726 23.658C21.6359 23.658 22.5199 23.777 23.3246 24.015C24.1406 24.2417 24.8546 24.6383 25.4666 25.205L23.5966 27.245C23.2339 26.871 22.8259 26.5877 22.3726 26.395C21.9193 26.2023 21.3526 26.106 20.6726 26.106C20.1059 26.106 19.5903 26.2023 19.1256 26.395C18.6723 26.5877 18.2813 26.8597 17.9526 27.211C17.6239 27.551 17.3689 27.959 17.1876 28.435C17.0176 28.911 16.9326 29.4267 16.9326 29.982C16.9326 30.5487 17.0176 31.07 17.1876 31.546C17.3689 32.0107 17.6239 32.4187 17.9526 32.77C18.2813 33.11 18.6723 33.3763 19.1256 33.569C19.5903 33.7617 20.1059 33.858 20.6726 33.858C21.2506 33.858 21.7493 33.7957 22.1686 33.671C22.5879 33.535 22.9223 33.399 23.1716 33.263V31.308H21.0126V28.86H25.7216V35.15ZM28.158 23.964H36.335V26.412H30.81V28.656H36.029V31.104H30.81V33.552H36.641V36H28.158V23.964ZM38.764 23.964H42.368L47.485 32.328H47.519V23.964H50.171V36H46.703L41.45 27.432H41.416V36H38.764V23.964ZM60.4973 27.092C60.2367 26.7747 59.9137 26.531 59.5283 26.361C59.1543 26.191 58.718 26.106 58.2193 26.106C57.7207 26.106 57.256 26.2023 56.8253 26.395C56.406 26.5877 56.0377 26.8597 55.7203 27.211C55.4143 27.551 55.1707 27.959 54.9893 28.435C54.8193 28.911 54.7343 29.4267 54.7343 29.982C54.7343 30.5487 54.8193 31.07 54.9893 31.546C55.1707 32.0107 55.4143 32.4187 55.7203 32.77C56.0263 33.11 56.3833 33.3763 56.7913 33.569C57.2107 33.7617 57.6583 33.858 58.1343 33.858C58.6783 33.858 59.16 33.7447 59.5793 33.518C59.9987 33.2913 60.3443 32.974 60.6163 32.566L62.8263 34.215C62.3163 34.929 61.6703 35.456 60.8883 35.796C60.1063 36.136 59.3017 36.306 58.4743 36.306C57.5337 36.306 56.6667 36.1587 55.8733 35.864C55.08 35.5693 54.3943 35.15 53.8163 34.606C53.2383 34.0507 52.785 33.382 52.4563 32.6C52.139 31.818 51.9803 30.9453 51.9803 29.982C51.9803 29.0187 52.139 28.146 52.4563 27.364C52.785 26.582 53.2383 25.919 53.8163 25.375C54.3943 24.8197 55.08 24.3947 55.8733 24.1C56.6667 23.8053 57.5337 23.658 58.4743 23.658C58.8143 23.658 59.1657 23.692 59.5283 23.76C59.9023 23.8167 60.265 23.913 60.6163 24.049C60.979 24.185 61.3247 24.3663 61.6533 24.593C61.982 24.8197 62.2767 25.0973 62.5373 25.426L60.4973 27.092ZM67.222 30.866L62.7 23.964H65.998L68.548 28.469L71.251 23.964H74.396L69.874 30.866V36H67.222V30.866Z" fill="#062472"/>
</svg>
