<svg width="34" height="42" viewBox="0 0 34 42" fill="none" xmlns="http://www.w3.org/2000/svg">
<path d="M29.8333 4.50001V37.5H18.8333V31.0833H15.1667V37.5H4.16667V4.50001H29.8333ZM22.5 11.8333H26.1667V8.16668H22.5V11.8333ZM15.1667 11.8333H18.8333V8.16668H15.1667V11.8333ZM7.83333 11.8333H11.5V8.16668H7.83333V11.8333ZM22.5 19.1667H26.1667V15.5H22.5V19.1667ZM15.1667 19.1667H18.8333V15.5H15.1667V19.1667ZM7.83333 19.1667H11.5V15.5H7.83333V19.1667ZM22.5 26.5H26.1667V22.8333H22.5V26.5ZM15.1667 26.5H18.8333V22.8333H15.1667V26.5ZM7.83333 26.5H11.5V22.8333H7.83333V26.5ZM22.5 33.8333H26.1667V30.1667H22.5V33.8333ZM7.83333 33.8333H11.5V30.1667H7.83333V33.8333ZM33.5 0.833344H0.5V41.1667H33.5V0.833344Z" fill="#505050"/>
</svg>
