<svg width="30" height="38" viewBox="0 0 30 38" fill="none" xmlns="http://www.w3.org/2000/svg">
<path d="M13.6247 31.7873H16.3747V29.954H19.1247C19.5219 29.954 19.8504 29.8241 20.1101 29.5644C20.3698 29.3047 20.4997 28.9762 20.4997 28.579V22.6207C20.4997 22.2234 20.3698 21.895 20.1101 21.6353C19.8504 21.3755 19.5219 21.2457 19.1247 21.2457H12.2497V18.0373H20.4997V15.2873H16.3747V13.454H13.6247V15.2873H10.8747C10.4775 15.2873 10.149 15.4172 9.88926 15.6769C9.62953 15.9366 9.49967 16.2651 9.49967 16.6623V22.6207C9.49967 23.0179 9.62953 23.3464 9.88926 23.6061C10.149 23.8658 10.4775 23.9957 10.8747 23.9957H17.7497V27.204H9.49967V29.954H13.6247V31.7873ZM3.08301 37.3332C2.34967 37.3332 1.70801 37.0582 1.15801 36.5082C0.608007 35.9582 0.333008 35.3165 0.333008 34.5832V3.4165C0.333008 2.68317 0.608007 2.0415 1.15801 1.4915C1.70801 0.941504 2.34967 0.666504 3.08301 0.666504H19.6288L29.6663 10.704V34.5832C29.6663 35.3165 29.3913 35.9582 28.8413 36.5082C28.2913 37.0582 27.6497 37.3332 26.9163 37.3332H3.08301ZM17.3372 10.704V3.4165H3.08301V34.5832H26.9163V10.704H17.3372ZM3.08301 3.4165V10.704V3.4165V34.5832V3.4165Z" fill="#505050"/>
</svg>
