<svg width="44" height="26" viewBox="0 0 44 26" fill="none" xmlns="http://www.w3.org/2000/svg">
<path d="M38.5 24H27.5V18.5H24.3833C22.3667 22.9 17.7833 25.8333 12.8333 25.8333C5.68333 25.8333 0 20.15 0 13C0 5.84999 5.68333 0.166656 12.8333 0.166656C17.7833 0.166656 22.3667 3.09999 24.3833 7.49999H44V18.5H38.5V24ZM31.1667 20.3333H34.8333V14.8333H40.3333V11.1667H21.8167L21.45 9.88332C20.1667 6.21666 16.6833 3.83332 12.8333 3.83332C7.7 3.83332 3.66667 7.86666 3.66667 13C3.66667 18.1333 7.7 22.1667 12.8333 22.1667C16.6833 22.1667 20.1667 19.7833 21.45 16.1167L21.8167 14.8333H31.1667V20.3333ZM12.8333 18.5C9.71667 18.5 7.33333 16.1167 7.33333 13C7.33333 9.88332 9.71667 7.49999 12.8333 7.49999C15.95 7.49999 18.3333 9.88332 18.3333 13C18.3333 16.1167 15.95 18.5 12.8333 18.5ZM12.8333 11.1667C11.7333 11.1667 11 11.9 11 13C11 14.1 11.7333 14.8333 12.8333 14.8333C13.9333 14.8333 14.6667 14.1 14.6667 13C14.6667 11.9 13.9333 11.1667 12.8333 11.1667Z" fill="#505050"/>
</svg>
