<svg width="38" height="44" viewBox="0 0 38 44" fill="none" xmlns="http://www.w3.org/2000/svg">
<path d="M26.3333 0H11.6667C9.65001 0 8.00001 1.65 8.00001 3.66667V33C8.00001 35.0167 9.65001 36.6667 11.6667 36.6667H33.6667C35.6833 36.6667 37.3333 35.0167 37.3333 33V11L26.3333 0ZM33.6667 33H11.6667V3.66667H24.5V12.8333H33.6667V33ZM4.33334 7.33333V40.3333H33.6667V44H4.33334C2.31667 44 0.666672 42.35 0.666672 40.3333V7.33333H4.33334ZM15.3333 18.3333V22H30V18.3333H15.3333ZM15.3333 25.6667V29.3333H24.5V25.6667H15.3333Z" fill="#505050"/>
</svg>
