<svg width="44" height="36" viewBox="0 0 44 36" fill="none" xmlns="http://www.w3.org/2000/svg">
<path d="M18.3333 0.666656V4.80999L22 7.24832V4.33332H40.3333V31.8333H31.1667V35.5H44V0.666656H18.3333ZM13.75 6.16666L0 15.3333V35.5H27.5V15.3333L13.75 6.16666ZM25.6667 7.99999V9.70499L28.6183 11.6667H29.3333V7.99999H25.6667ZM33 7.99999V11.6667H36.6667V7.99999H33ZM13.75 10.75L23.8333 17.1667V31.8333H18.3333V20.8333H9.16667V31.8333H3.66667V17.1667L13.75 10.75ZM33 15.3333V19H36.6667V15.3333H33ZM33 22.6667V26.3333H36.6667V22.6667H33Z" fill="#505050"/>
</svg>
