<svg width="34" height="34" viewBox="0 0 34 34" fill="none" xmlns="http://www.w3.org/2000/svg">
<path d="M0.5 33.5V30.75H4.71667V0.5H22.5917V2.5625H29.3292V30.75H33.5V33.5H26.5792V5.3125H22.5917V33.5H0.5ZM7.46667 3.25V30.75V3.25ZM15.6708 18.8333C16.1903 18.8333 16.6257 18.6576 16.9771 18.3062C17.3285 17.9549 17.5042 17.5194 17.5042 17C17.5042 16.4806 17.3285 16.0451 16.9771 15.6938C16.6257 15.3424 16.1903 15.1667 15.6708 15.1667C15.1514 15.1667 14.716 15.3424 14.3646 15.6938C14.0132 16.0451 13.8375 16.4806 13.8375 17C13.8375 17.5194 14.0132 17.9549 14.3646 18.3062C14.716 18.6576 15.1514 18.8333 15.6708 18.8333ZM7.46667 30.75H19.8417V3.25H7.46667V30.75Z" fill="#505050"/>
</svg>
