<svg width="38" height="38" viewBox="0 0 38 38" fill="none" xmlns="http://www.w3.org/2000/svg">
<path d="M0.5 8.5C0.5 4.08172 4.08172 0.5 8.5 0.5H29.5C33.9183 0.5 37.5 4.08172 37.5 8.5V29.5C37.5 33.9183 33.9183 37.5 29.5 37.5H8.5C4.08172 37.5 0.5 33.9183 0.5 29.5V8.5Z" fill="white"/>
<path fill-rule="evenodd" clip-rule="evenodd" d="M22.6607 12.7411H25.25V15.3304C25.25 15.6756 25.5298 15.9554 25.875 15.9554C26.2202 15.9554 26.5 15.6756 26.5 15.3304V12.1161C26.5 11.7709 26.2202 11.4911 25.875 11.4911H22.6607C22.3155 11.4911 22.0357 11.7709 22.0357 12.1161C22.0357 12.4613 22.3155 12.7411 22.6607 12.7411ZM15.9643 25.8751C15.9643 25.5299 15.6845 25.2501 15.3393 25.2501H12.75L12.75 22.6608C12.75 22.3156 12.4702 22.0358 12.125 22.0358C11.7798 22.0358 11.5 22.3156 11.5 22.6608V25.8751C11.5 26.2203 11.7798 26.5001 12.125 26.5001H15.3393C15.6845 26.5001 15.9643 26.2203 15.9643 25.8751ZM25.25 22.6608C25.25 22.3156 25.5298 22.0358 25.875 22.0358C26.2202 22.0358 26.5 22.3156 26.5 22.6608V25.8751C26.5 26.2203 26.2202 26.5001 25.875 26.5001H22.6607C22.3155 26.5001 22.0357 26.2203 22.0357 25.8751C22.0357 25.5299 22.3155 25.2501 22.6607 25.2501H25.25V22.6608ZM12.741 15.3304V12.7411L15.3303 12.7411C15.6755 12.7411 15.9553 12.4613 15.9553 12.1161C15.9553 11.7709 15.6755 11.4911 15.3303 11.4911H12.116C11.7708 11.4911 11.491 11.7709 11.491 12.1161V15.3304C11.491 15.6756 11.7708 15.9554 12.116 15.9554C12.4612 15.9554 12.741 15.6756 12.741 15.3304Z" fill="#B61D22"/>
</svg>
