<svg width="80" height="80" viewBox="0 0 80 80" fill="none" xmlns="http://www.w3.org/2000/svg">
<g clip-path="url(#clip0_122_1928)">
<path d="M40 80C62.0914 80 80 62.0914 80 40C80 17.9086 62.0914 0 40 0C17.9086 0 0 17.9086 0 40C0 62.0914 17.9086 80 40 80Z" fill="#F3F4F5"/>
<path d="M41.1759 71.89C51.7632 71.89 60.3459 70.9959 60.3459 69.893C60.3459 68.7901 51.7632 67.896 41.1759 67.896C30.5886 67.896 22.0059 68.7901 22.0059 69.893C22.0059 70.9959 30.5886 71.89 41.1759 71.89Z" fill="#F3F4F5"/>
<path d="M53.7831 16.7749H28.5691C26.2677 16.7749 24.4021 18.6405 24.4021 20.9419V65.3259C24.4021 67.6273 26.2677 69.4929 28.5691 69.4929H53.7831C56.0845 69.4929 57.9501 67.6273 57.9501 65.3259V20.9419C57.9501 18.6405 56.0845 16.7749 53.7831 16.7749Z" fill="white"/>
<path d="M53.7831 16.7749H28.5691C26.2677 16.7749 24.4021 18.6405 24.4021 20.9419V65.3259C24.4021 67.6273 26.2677 69.4929 28.5691 69.4929H53.7831C56.0845 69.4929 57.9501 67.6273 57.9501 65.3259V20.9419C57.9501 18.6405 56.0845 16.7749 53.7831 16.7749Z" stroke="#6E7D88" stroke-width="2" stroke-linecap="round" stroke-linejoin="round"/>
<path d="M47.9907 16.775H34.6777V13.58C34.6791 12.7322 35.0168 11.9195 35.6168 11.3205C36.2167 10.7215 37.0299 10.385 37.8777 10.385H44.7997C45.6476 10.385 46.4607 10.7215 47.0607 11.3205C47.6607 11.9195 47.9984 12.7322 47.9997 13.58L47.9907 16.775Z" fill="white"/>
<path d="M47.9907 16.775H34.6777V13.58C34.6791 12.7322 35.0168 11.9195 35.6168 11.3205C36.2167 10.7215 37.0299 10.385 37.8777 10.385H44.7997C45.6476 10.385 46.4607 10.7215 47.0607 11.3205C47.6607 11.9195 47.9984 12.7322 47.9997 13.58L47.9907 16.775Z" stroke="#6E7D88" stroke-width="2" stroke-linecap="round" stroke-linejoin="round"/>
<path d="M46.4229 23.836C46.5389 23.6335 46.5996 23.4041 46.599 23.1708C46.5985 22.9374 46.5366 22.7083 46.4196 22.5064C46.3027 22.3045 46.1347 22.1368 45.9326 22.0202C45.7304 21.9036 45.5012 21.8422 45.2679 21.842H39.0819C38.7921 21.8419 38.5102 21.9364 38.279 22.1111C38.0478 22.2858 37.8799 22.5312 37.8009 22.81L34.7589 33.541C34.7018 33.7394 34.6917 33.9484 34.7293 34.1513C34.7668 34.3543 34.851 34.5458 34.9752 34.7106C35.0995 34.8755 35.2603 35.0092 35.4451 35.1013C35.6298 35.1933 35.8335 35.2412 36.0399 35.241H38.8999L36.3999 48.741C36.3719 48.8941 36.3985 49.0521 36.4749 49.1876C36.5512 49.3232 36.6727 49.4277 36.8181 49.4831C36.9635 49.5384 37.1237 49.5411 37.2709 49.4907C37.4181 49.4403 37.543 49.3399 37.6239 49.207L47.1649 33.46C47.2872 33.2582 47.3537 33.0274 47.3575 32.7914C47.3613 32.5554 47.3023 32.3227 47.1865 32.117C47.0707 31.9113 46.9022 31.7401 46.6985 31.621C46.4947 31.5019 46.2629 31.4391 46.0269 31.439H42.0629L46.4229 23.836Z" fill="white"/>
<path d="M46.4229 23.836C46.5389 23.6335 46.5996 23.4041 46.599 23.1708C46.5985 22.9374 46.5366 22.7083 46.4196 22.5064C46.3027 22.3045 46.1347 22.1368 45.9326 22.0202C45.7304 21.9036 45.5012 21.8422 45.2679 21.842H39.0819C38.7921 21.8419 38.5102 21.9364 38.279 22.1111C38.0478 22.2858 37.8799 22.5312 37.8009 22.81L34.7589 33.541C34.7018 33.7394 34.6917 33.9484 34.7293 34.1513C34.7668 34.3543 34.851 34.5458 34.9752 34.7106C35.0995 34.8755 35.2603 35.0092 35.4451 35.1013C35.6298 35.1933 35.8335 35.2412 36.0399 35.241H38.8999L36.3999 48.741C36.3719 48.8941 36.3985 49.0521 36.4749 49.1876C36.5512 49.3232 36.6727 49.4277 36.8181 49.4831C36.9635 49.5384 37.1237 49.5411 37.2709 49.4907C37.4181 49.4403 37.543 49.3399 37.6239 49.207L47.1649 33.46C47.2872 33.2582 47.3537 33.0274 47.3575 32.7914C47.3613 32.5554 47.3023 32.3227 47.1865 32.117C47.0707 31.9113 46.9022 31.7401 46.6985 31.621C46.4947 31.5019 46.2629 31.4391 46.0269 31.439H42.0629L46.4229 23.836Z" stroke="#6E7D88" stroke-width="2" stroke-linecap="round" stroke-linejoin="round"/>
<path d="M33.1877 58.9641C33.1877 58.9641 30.9047 49.3561 37.9807 46.1841C43.7717 43.5841 57.9497 43.9841 57.9497 36.5991V31.0081C60.5781 34.4455 61.9837 38.6621 61.9437 42.9891C61.9437 71.0721 38.6797 69.5481 35.5847 63.7571C35.5847 63.7571 30.6487 66.7181 21.8847 67.6211C21.4831 67.6587 21.0822 67.5424 20.763 67.2957C20.4439 67.049 20.2304 66.6902 20.1657 66.2921L19.8997 64.7181C19.8628 64.5012 19.8713 64.2789 19.9247 64.0655C19.9781 63.852 20.0752 63.652 20.2099 63.478C20.3446 63.304 20.514 63.1599 20.7072 63.0547C20.9005 62.9496 21.1135 62.8857 21.3327 62.8671C29.8427 62.2211 33.1877 58.9641 33.1877 58.9641Z" fill="#DBDEE1"/>
<path d="M35.8618 60.7072C35.8618 60.7072 52.2758 59.6542 59.0398 43.6672" stroke="#6E7D88" stroke-width="2" stroke-linecap="round" stroke-linejoin="round"/>
<path d="M33.1877 58.9641C33.1877 58.9641 30.9047 49.3561 37.9807 46.1841C43.7717 43.5841 57.9497 43.9841 57.9497 36.5991V31.0081C60.5781 34.4455 61.9837 38.6621 61.9437 42.9891C61.9437 71.0721 38.6797 69.5481 35.5847 63.7571C35.5847 63.7571 30.6487 66.7181 21.8847 67.6211C21.4831 67.6587 21.0822 67.5424 20.763 67.2957C20.4439 67.049 20.2304 66.6902 20.1657 66.2921L19.8997 64.7181C19.8628 64.5012 19.8713 64.2789 19.9247 64.0655C19.9781 63.852 20.0752 63.652 20.2099 63.478C20.3446 63.304 20.514 63.1599 20.7072 63.0547C20.9005 62.9496 21.1135 62.8857 21.3327 62.8671C29.8427 62.2211 33.1877 58.9641 33.1877 58.9641Z" stroke="#6E7D88" stroke-width="2" stroke-linecap="round" stroke-linejoin="round"/>
<path d="M24.4 26.3689V30.6259C24.4 34.1259 27.133 39.8529 33.05 40.8259C33.3288 40.8715 33.5858 41.0047 33.7839 41.2061C33.982 41.4076 34.1109 41.6668 34.1519 41.9463C34.1928 42.2258 34.1438 42.5112 34.0119 42.761C33.88 43.0108 33.672 43.2121 33.418 43.3359C21.492 49.1639 10.785 33.1169 24.4 26.3689Z" fill="#DBDEE1"/>
<path d="M24.4 26.3689V30.6259C24.4 34.1259 27.133 39.8529 33.05 40.8259C33.3288 40.8715 33.5858 41.0047 33.7839 41.2061C33.982 41.4076 34.1109 41.6668 34.1519 41.9463C34.1928 42.2258 34.1438 42.5112 34.0119 42.761C33.88 43.0108 33.672 43.2121 33.418 43.3359C21.492 49.1639 10.785 33.1169 24.4 26.3689Z" stroke="#6E7D88" stroke-width="2" stroke-linecap="round" stroke-linejoin="round"/>
<path d="M42.6001 49.3003C38.3771 54.5553 42.6541 62.3323 50.0001 62.1483" stroke="#6E7D88" stroke-width="2" stroke-linecap="round" stroke-linejoin="round"/>
<path d="M50.0618 47.906C48.0138 51.59 51.4698 55.93 55.9788 55.042" stroke="#6E7D88" stroke-width="2" stroke-linecap="round" stroke-linejoin="round"/>
</g>
<defs>
<clipPath id="clip0_122_1928">
<rect width="80" height="80" fill="white"/>
</clipPath>
</defs>
</svg>
