<svg width="119" height="26" viewBox="0 0 119 26" fill="none" xmlns="http://www.w3.org/2000/svg">
<path d="M24.8875 17.0756L23.6212 15.8072L24.8875 14.5408C25.8896 13.5387 25.8896 11.9085 24.8875 10.9064L20.438 6.45682V4.35705C20.438 3.63545 19.9095 3.02361 19.2102 2.93011C18.8057 2.87726 18.3972 2.99922 18.0902 3.26957C17.9357 3.40576 17.8138 3.5704 17.7325 3.75335L15.0392 1.0702C14.0655 0.100611 12.4902 0.10061 11.5165 1.07223L1.66613 10.9064C0.664021 11.9085 0.664021 13.5387 1.66613 14.5408L2.93453 15.8092L1.66613 17.0756C0.661988 18.0797 0.661988 19.7059 1.66613 20.71L5.2518 24.2957C5.70712 24.751 6.30879 25.0457 6.95112 25.0843C7.69711 25.1291 8.40449 24.8587 8.92689 24.3363L12.4902 20.7812C12.9292 20.3441 13.6387 20.3441 14.0777 20.7832L17.6248 24.3363C18.1472 24.8587 18.8566 25.1291 19.6005 25.0843C20.2428 25.0457 20.8445 24.751 21.2999 24.2957L24.8855 20.71C25.8896 19.7079 25.8896 18.0777 24.8875 17.0756ZM2.76379 13.4452C2.36538 13.0468 2.36538 12.4004 2.76379 12.002L12.4841 2.28168C12.9232 1.84262 13.6326 1.84262 14.0716 2.28168L23.7919 12.002C24.1903 12.4004 24.1903 13.0468 23.7919 13.4452L22.5256 14.7116L15.0575 7.23534C14.0838 6.26168 12.5065 6.25965 11.5308 7.23127L4.03218 14.7156L2.76379 13.4452ZM21.432 15.8051L20.19 17.0471C20.0071 17.2301 19.7672 17.354 19.5091 17.3703C19.2123 17.3886 18.9297 17.2809 18.7204 17.0735L15.0392 13.3964C14.0655 12.4248 12.4882 12.4248 11.5145 13.3964L7.83331 17.0735C7.6402 17.2666 7.38409 17.3723 7.11171 17.3723C6.83933 17.3723 6.5832 17.2666 6.39009 17.0735L5.12577 15.8092L12.4963 8.44275C12.9354 8.00369 13.6468 8.00572 14.0838 8.44478L21.432 15.8051ZM23.7919 19.6144L20.19 23.2163C20.0071 23.3993 19.7672 23.5232 19.5091 23.5395C19.2123 23.5578 18.9297 23.4501 18.7204 23.2427L15.0392 19.5676C14.0655 18.596 12.4882 18.596 11.5145 19.5676L7.83331 23.2427C7.62597 23.4521 7.34343 23.5578 7.04463 23.5395C6.78647 23.5232 6.54661 23.3993 6.36367 23.2163L2.76176 19.6144C2.36335 19.216 2.36335 18.5696 2.76176 18.1712L4.03015 16.9048L5.25383 18.1285C5.70915 18.5838 6.31082 18.8786 6.95315 18.9172C7.69915 18.9619 8.40652 18.6916 8.92892 18.1692L12.4922 14.612C12.9313 14.1729 13.6427 14.1749 14.0797 14.614L17.6268 18.1692C18.1492 18.6916 18.8586 18.9619 19.6026 18.9172C20.2449 18.8786 20.8466 18.5838 21.3019 18.1285L22.5256 16.9048L23.7919 18.1732C24.1903 18.5676 24.1903 19.216 23.7919 19.6144Z" fill="#062472"/>
<path d="M92.7915 6.62541C92.7224 6.62541 92.6654 6.5685 92.6654 6.49939V5.0074C92.6654 4.93828 92.7224 4.88137 92.7915 4.88137H97.1496C97.4484 4.88137 97.6415 5.12529 97.6516 5.36515C97.6516 5.36515 97.6618 5.61314 97.6537 5.86926C97.5703 8.82478 95.7592 10.892 92.8443 10.892C89.8868 10.892 87.7382 8.52394 87.7382 5.56638C87.7382 2.60883 89.9335 0.177734 92.8911 0.177734C95.2124 0.177734 96.4381 1.63924 96.5072 1.69818C96.558 1.74494 96.5601 1.82624 96.5133 1.87503L95.4076 3.04789C95.3608 3.0987 95.2795 3.10074 95.2307 3.05398C95.1697 2.99097 94.3282 2.00918 92.8952 2.00918C90.9661 2.00918 89.6347 3.63533 89.6347 5.56638C89.6347 7.49744 90.9743 9.07683 92.8626 9.07683C94.3668 9.07683 95.4401 8.27799 95.7002 6.96894C95.7084 6.92625 95.7125 6.89983 95.7125 6.87747C95.7125 6.73924 95.6007 6.62541 95.4604 6.62541H92.7915Z" fill="#0E2638"/>
<path d="M101.256 10.8147C99.8469 10.8147 98.7879 9.78205 98.7879 7.93638V3.62505C98.7879 3.55594 98.8448 3.49902 98.9139 3.49902H100.522C100.591 3.49902 100.648 3.55594 100.648 3.62505V7.48512C100.648 8.61123 101.148 9.15395 102.067 9.15395C102.943 9.15395 103.548 8.57057 103.548 7.48512V3.62505C103.548 3.55594 103.605 3.49902 103.674 3.49902H105.282C105.351 3.49902 105.408 3.55594 105.408 3.62505V10.5707C105.408 10.6398 105.351 10.6968 105.282 10.6968H104.654H104.274H103.807C103.737 10.6968 103.681 10.6398 103.681 10.5707C103.681 10.5707 103.681 9.83084 103.681 9.29014C103.681 9.22103 103.624 9.16412 103.555 9.16412C103.485 9.16412 103.445 9.20681 103.424 9.27388C103.25 9.87353 102.703 10.8147 101.256 10.8147Z" fill="#0E2638"/>
<path d="M47.5175 3.31812C45.4299 3.31812 43.7387 5.00931 43.7387 7.09688C43.7387 9.18445 45.4299 10.8756 47.5175 10.8756C49.605 10.8756 51.2962 9.18445 51.2962 7.09688C51.2962 5.01134 49.603 3.31812 47.5175 3.31812ZM47.5175 9.11533C46.43 9.11533 45.5498 8.21282 45.5498 7.09688C45.5498 5.98297 46.43 5.07842 47.5175 5.07842C48.605 5.07842 49.4851 5.98093 49.4851 7.09688C49.4851 8.21282 48.6029 9.11533 47.5175 9.11533Z" fill="#0E2638"/>
<path d="M42.2568 5.1069C41.8036 5.1069 41.3503 5.33049 41.0921 5.85696C40.9132 6.22284 40.8523 6.73711 40.8523 7.42416L40.8543 10.5687C40.8543 10.6378 40.7974 10.6948 40.7283 10.6948H39.1204C39.0513 10.6948 38.9944 10.6378 38.9944 10.5687V3.62507C38.9944 3.55596 39.0513 3.49905 39.1204 3.49905H40.1286H40.5961C40.6653 3.49905 40.7222 3.55596 40.7222 3.62507C40.7222 3.62507 40.7222 4.36497 40.7222 4.90566C40.7222 4.97477 40.7791 5.03169 40.8482 5.03169C40.9173 5.03169 40.958 4.98291 40.9783 4.91583C41.1043 4.4788 41.3035 3.9503 41.7141 3.61084C41.9377 3.42587 42.2203 3.34253 42.5008 3.34253C42.7366 3.34253 42.9927 3.39944 43.2508 3.56612C43.2854 3.58848 43.3057 3.6271 43.3057 3.66979V5.24309C43.3057 5.3122 43.2488 5.36912 43.1797 5.36912C43.1533 5.36912 43.1309 5.35895 43.1085 5.34676C42.8931 5.22683 42.6166 5.1069 42.2568 5.1069Z" fill="#0E2638"/>
<path d="M72.8955 5.1069C72.4422 5.1069 71.9889 5.33049 71.7308 5.85696C71.5519 6.22284 71.4909 6.73711 71.4909 7.42416L71.493 10.5687C71.493 10.6378 71.4361 10.6948 71.3669 10.6948H69.7591C69.69 10.6948 69.6331 10.6378 69.6331 10.5687V3.62507C69.6331 3.55596 69.69 3.49905 69.7591 3.49905H70.7673H71.2348C71.3039 3.49905 71.3608 3.55596 71.3608 3.62507C71.3608 3.62507 71.3608 4.36497 71.3608 4.90566C71.3608 4.97477 71.4178 5.03169 71.4869 5.03169C71.556 5.03169 71.5966 4.98291 71.617 4.91583C71.743 4.4788 71.9422 3.9503 72.3528 3.61084C72.5764 3.42587 72.8589 3.34253 73.1394 3.34253C73.3752 3.34253 73.6314 3.39944 73.8895 3.56612C73.9241 3.58848 73.9444 3.6271 73.9444 3.66979V5.24309C73.9444 5.3122 73.8875 5.36912 73.8184 5.36912C73.7919 5.36912 73.7696 5.35895 73.7472 5.34676C73.5338 5.22683 73.2553 5.1069 72.8955 5.1069Z" fill="#0E2638"/>
<path d="M110.269 5.1069C109.815 5.1069 109.362 5.33049 109.104 5.85696C108.925 6.22284 108.864 6.73711 108.864 7.42416L108.866 10.5687C108.866 10.6378 108.809 10.6948 108.74 10.6948H107.132C107.063 10.6948 107.006 10.6378 107.006 10.5687V3.62507C107.006 3.55596 107.063 3.49905 107.132 3.49905H108.14H108.608C108.677 3.49905 108.734 3.55596 108.734 3.62507C108.734 3.62507 108.734 4.36497 108.734 4.90566C108.734 4.97477 108.791 5.03169 108.86 5.03169C108.929 5.03169 108.97 4.98291 108.99 4.91583C109.116 4.4788 109.315 3.9503 109.726 3.61084C109.949 3.42587 110.232 3.34253 110.512 3.34253C110.748 3.34253 111.004 3.39944 111.262 3.56612C111.297 3.58848 111.317 3.6271 111.317 3.66979V5.24309C111.317 5.3122 111.26 5.36912 111.191 5.36912C111.165 5.36912 111.143 5.35895 111.12 5.34676C110.905 5.22683 110.628 5.1069 110.269 5.1069Z" fill="#0E2638"/>
<path d="M114.783 10.8147C113.374 10.8147 112.315 9.78205 112.315 7.93638V3.62505C112.315 3.55594 112.372 3.49902 112.441 3.49902H114.049C114.118 3.49902 114.175 3.55594 114.175 3.62505V7.48512C114.175 8.61123 114.675 9.15395 115.594 9.15395C116.47 9.15395 117.076 8.57057 117.076 7.48512V3.62505C117.076 3.55594 117.133 3.49902 117.202 3.49902H118.81C118.879 3.49902 118.936 3.55594 118.936 3.62505V10.5707C118.936 10.6398 118.879 10.6968 118.81 10.6968H118.182H117.802H117.334C117.265 10.6968 117.208 10.6398 117.208 10.5707C117.208 10.5707 117.208 9.83084 117.208 9.29014C117.208 9.22103 117.151 9.16412 117.082 9.16412C117.013 9.16412 116.972 9.20681 116.952 9.27388C116.777 9.87353 116.23 10.8147 114.783 10.8147Z" fill="#0E2638"/>
<path d="M86.6324 3.49902H84.9473C84.8924 3.49902 84.8477 3.53358 84.8294 3.58033C84.8294 3.58033 84.1566 5.49919 83.8131 6.47487C83.6342 6.98305 83.3313 7.83881 83.1687 8.47504C83.1565 8.52586 83.1098 8.57057 83.0447 8.57057C82.9899 8.57057 82.939 8.53399 82.9228 8.47707C82.752 7.84084 82.4349 6.98508 82.2479 6.47081C81.819 5.29998 81.193 3.58236 81.193 3.58236C81.1747 3.53358 81.1299 3.50106 81.0751 3.50106H79.3879C79.3188 3.50106 79.2619 3.55797 79.2619 3.62708C79.2619 3.64334 79.266 3.65961 79.2721 3.67587L82.0629 10.6988L80.9694 13.4287C80.9633 13.4429 80.9612 13.4592 80.9612 13.4754C80.9612 13.5446 81.0182 13.6015 81.0873 13.6015H82.7215C82.7744 13.6015 82.8191 13.5689 82.8394 13.5222L86.7524 3.67383C86.7585 3.65961 86.7605 3.64334 86.7605 3.62708C86.7585 3.55391 86.7036 3.49902 86.6324 3.49902Z" fill="#0E2638"/>
<path d="M34.1769 0.344482H32.9106H32.193H30.9633C30.6848 0.344482 30.4592 0.57011 30.4592 0.848588V10.573C30.4592 10.6421 30.5161 10.699 30.5852 10.699H32.193C32.2622 10.699 32.3191 10.6421 32.3191 10.573V8.15406C32.3191 8.01584 32.4309 7.90201 32.5711 7.90201H32.9675H34.1769C36.3275 7.90201 38.0187 6.21081 38.0187 4.12325C38.0208 2.03568 36.3296 0.344482 34.1769 0.344482ZM34.0164 6.20471H32.9512H32.5732C32.4349 6.20471 32.3211 6.09292 32.3211 5.95266V2.29383C32.3211 2.15561 32.4329 2.04178 32.5732 2.04178H34.0164C35.2299 2.04178 36.1608 2.97274 36.1608 4.12325C36.1608 5.27375 35.2278 6.20471 34.0164 6.20471Z" fill="#0E2638"/>
<path d="M76.8024 5.21882C76.8024 5.14971 76.8593 5.0928 76.9284 5.0928H78.4184C78.4875 5.0928 78.5444 5.03588 78.5444 4.96677V3.62317C78.5444 3.55405 78.4875 3.49714 78.4184 3.49714H76.7556C76.6865 3.49714 76.6296 3.44022 76.6296 3.37111V1.70025C76.6296 1.63113 76.5727 1.57422 76.5036 1.57422H75.0665C74.9974 1.57422 74.9404 1.63113 74.9404 1.70025V8.51178C74.9404 10.268 75.7942 10.8758 76.9081 10.8758C77.6155 10.8758 78.0382 10.6603 78.2131 10.575C78.2679 10.5485 78.2944 10.5058 78.2944 10.4449L78.2903 9.35534C78.2903 9.26997 78.211 9.20085 78.1074 9.23948C77.8817 9.32485 77.6886 9.37973 77.4589 9.37973C77.1276 9.37973 76.7983 9.22321 76.7983 8.60934V5.21882H76.8024Z" fill="#0E2638"/>
<path d="M56.756 10.8452C58.6119 10.8452 60.1303 9.22513 60.1303 7.0969C60.1303 4.96868 58.6099 3.34863 56.756 3.34863C55.1949 3.34863 54.5587 4.39953 54.4083 4.7024C54.3798 4.76135 54.331 4.77761 54.2904 4.77761C54.2213 4.77761 54.1644 4.72069 54.1644 4.65158V3.62101C54.1644 3.5519 54.1075 3.49499 54.0383 3.49499H52.5626C52.4935 3.49499 52.4366 3.5519 52.4366 3.62101V13.4694C52.4366 13.5385 52.4935 13.5954 52.5626 13.5954H54.1705C54.2396 13.5954 54.2965 13.5385 54.2965 13.4694V12.9876C54.2965 10.6053 54.1623 9.66215 54.1623 9.5341C54.1623 9.46498 54.2192 9.40807 54.2884 9.40807C54.3575 9.40807 54.3941 9.46092 54.4022 9.47921C54.7091 10.089 55.4531 10.8452 56.756 10.8452ZM56.3007 9.11536C55.2132 9.11536 54.3331 8.21285 54.3331 7.0969C54.3331 5.98299 55.2132 5.07845 56.3007 5.07845C57.3882 5.07845 58.2684 5.98096 58.2684 7.0969C58.2684 8.21285 57.3882 9.11536 56.3007 9.11536Z" fill="#0E2638"/>
<path d="M64.7852 3.31812C62.6976 3.31812 61.1629 5.00931 61.1629 7.09688C61.1629 9.18445 62.7565 10.8756 64.9254 10.8756C66.1003 10.8756 66.9987 10.465 67.5984 9.98532C67.6512 9.94264 67.6634 9.86743 67.6228 9.81254L66.9561 8.88971C66.9154 8.83279 66.8361 8.82059 66.7812 8.86125C66.4845 9.05435 66.0515 9.39585 65.0677 9.39585C64.2384 9.39585 63.4985 8.91207 63.1509 8.14778C63.1183 8.0746 63.0696 7.9689 63.0696 7.92215C63.0696 7.85304 63.1265 7.79612 63.1956 7.79612C63.1956 7.79612 67.5171 7.79612 67.8199 7.79612C68.0212 7.79612 68.3159 7.6579 68.3322 7.30421C68.442 5.08045 67.204 3.31812 64.7852 3.31812ZM66.3788 6.51553H63.1346C63.0655 6.51553 63.0086 6.45861 63.0086 6.3895C63.0086 6.35901 63.0391 6.25128 63.0655 6.16591C63.3297 5.34877 63.9924 4.86702 64.8786 4.86702C65.6267 4.86702 66.1877 5.239 66.4763 5.81222C66.5597 5.97687 66.6288 6.18827 66.6288 6.26144C66.6308 6.4017 66.517 6.51553 66.3788 6.51553Z" fill="#0E2638"/>
<path d="M41.2324 18.417C39.1834 18.417 37.5227 20.0777 37.5227 22.1266C37.5227 24.1756 39.1834 25.8363 41.2324 25.8363C43.2813 25.8363 44.942 24.1756 44.942 22.1266C44.942 20.0777 43.2813 18.417 41.2324 18.417ZM41.2324 24.7793C39.781 24.7793 38.6021 23.5922 38.6021 22.1287C38.6021 20.6651 39.779 19.4781 41.2324 19.4781C42.6837 19.4781 43.8627 20.6651 43.8627 22.1287C43.8627 23.5922 42.6857 24.7793 41.2324 24.7793Z" fill="#0E2638"/>
<path d="M47.3122 19.7443C47.3122 19.8093 47.365 19.8378 47.4057 19.8378C47.4484 19.8378 47.4788 19.8134 47.4951 19.7666C47.6333 19.3357 48.0094 18.4434 49.1172 18.4434C49.3489 18.4434 49.6457 18.5003 49.8998 18.6629C49.9323 18.6852 49.9547 18.7218 49.9547 18.7645V19.665C49.9547 19.7341 49.8998 19.789 49.8307 19.789C49.8042 19.789 49.7819 19.7788 49.7615 19.7687C49.5481 19.6487 49.2737 19.5166 48.8468 19.5166C48.3813 19.5166 47.8996 19.8032 47.6272 20.3602C47.4504 20.72 47.3609 21.2505 47.3609 21.8847V25.5374C47.3609 25.6065 47.3081 25.6614 47.241 25.6614H46.4279C46.3588 25.6614 46.304 25.6065 46.304 25.5374V18.7198C46.304 18.6507 46.3588 18.5958 46.4279 18.5958H47.1882C47.2573 18.5958 47.3122 18.6507 47.3122 18.7198V19.7443Z" fill="#0E2638"/>
<path d="M36.1222 21.6429C36.1913 21.6429 36.2462 21.588 36.2462 21.5189V20.7058C36.2462 20.6367 36.1913 20.5818 36.1222 20.5818L31.7682 20.5838C31.632 20.5838 31.5222 20.4741 31.5222 20.3379V16.8112C31.5222 16.675 31.632 16.5652 31.7682 16.5652H36.8113C36.8804 16.5652 36.9353 16.5103 36.9353 16.4412V15.6281C36.9353 15.5611 36.8804 15.5042 36.8113 15.5042H30.9551C30.6827 15.5042 30.4612 15.7257 30.4612 15.9981V25.5355C30.4612 25.6046 30.5161 25.6594 30.5852 25.6594H31.3982C31.4674 25.6594 31.5222 25.6046 31.5222 25.5355V21.8908C31.5222 21.7547 31.632 21.6449 31.7682 21.6449L36.1222 21.6429Z" fill="#0E2638"/>
<path d="M74.9384 21.6063C74.1233 21.4904 72.9341 21.3827 72.9341 20.5086C72.9341 19.8581 73.7249 19.3805 74.6579 19.3805C75.4465 19.3805 76.1255 19.6589 76.5523 19.9862C76.6011 20.0248 76.6865 20.0086 76.721 19.9577L77.1032 19.3195C77.1296 19.2707 77.1296 19.2057 77.0808 19.163C76.4873 18.6589 75.5319 18.3926 74.6579 18.3926C72.8244 18.3926 71.8812 19.4882 71.8812 20.5432C71.8812 21.7729 72.9789 22.2913 74.294 22.5169C75.2392 22.6795 76.4426 22.8543 76.4426 23.7141C76.4426 24.4215 75.5726 24.8687 74.54 24.8687C73.4911 24.8687 72.7532 24.4134 72.3934 24.1613C72.3325 24.1187 72.2654 24.1288 72.2227 24.1837L71.7999 24.8098C71.7755 24.8545 71.7775 24.9175 71.8243 24.9602C72.2796 25.3769 73.298 25.8586 74.5481 25.8586C76.4507 25.8586 77.4995 24.8057 77.4995 23.6511C77.4955 22.3035 76.2942 21.7994 74.9384 21.6063Z" fill="#0E2638"/>
<path d="M106.801 21.6063C105.986 21.4904 104.796 21.3827 104.796 20.5086C104.796 19.8581 105.587 19.3805 106.52 19.3805C107.309 19.3805 107.988 19.6589 108.415 19.9862C108.463 20.0248 108.549 20.0086 108.583 19.9577L108.966 19.3195C108.992 19.2707 108.992 19.2057 108.943 19.163C108.35 18.6589 107.394 18.3926 106.52 18.3926C104.687 18.3926 103.744 19.4882 103.744 20.5432C103.744 21.7729 104.841 22.2913 106.156 22.5169C107.102 22.6795 108.305 22.8543 108.305 23.7141C108.305 24.4215 107.435 24.8687 106.402 24.8687C105.353 24.8687 104.616 24.4134 104.256 24.1613C104.195 24.1187 104.128 24.1288 104.085 24.1837L103.662 24.8098C103.638 24.8545 103.64 24.9175 103.687 24.9602C104.142 25.3769 105.16 25.8586 106.41 25.8586C108.313 25.8586 109.362 24.8057 109.362 23.6511C109.358 22.3035 108.157 21.7994 106.801 21.6063Z" fill="#0E2638"/>
<path d="M92.5435 18.4211C90.4966 18.4211 88.9904 20.0798 88.9904 22.1267C88.9904 24.1736 90.5535 25.8323 92.6817 25.8323C93.822 25.8323 94.7144 25.4298 95.3018 24.9583C95.3527 24.9176 95.3649 24.8424 95.3262 24.7895L94.9075 24.194C94.8668 24.1391 94.7896 24.1269 94.7347 24.1655C94.442 24.3546 93.7489 24.8139 92.7386 24.8139C90.7791 24.8139 90.147 23.1878 90.147 22.7609C90.147 22.6918 90.2018 22.6369 90.2709 22.6369C90.2709 22.6369 95.2205 22.6369 95.5173 22.6369C95.7693 22.6369 96.0052 22.452 96.0214 22.1552C96.1149 20.2445 94.9522 18.4211 92.5435 18.4211ZM94.7002 21.7161H90.2486C90.1795 21.7161 90.1246 21.6612 90.1246 21.5921C90.1246 20.9193 90.8584 19.4192 92.5232 19.4192C94.4644 19.4192 94.9461 20.9803 94.9461 21.4702C94.9482 21.6043 94.8364 21.7161 94.7002 21.7161Z" fill="#0E2638"/>
<path d="M66.9032 25.7752C65.4315 25.7752 64.342 24.7711 64.342 22.7973V18.7177C64.342 18.6486 64.3969 18.5938 64.466 18.5938H65.279C65.3482 18.5938 65.403 18.6486 65.403 18.7177V22.7669C65.403 23.9133 66.021 24.8178 67.3321 24.8178C68.6025 24.8178 69.3221 23.832 69.3221 22.7669V18.7177C69.3221 18.6486 69.3769 18.5938 69.4461 18.5938H70.2591C70.3282 18.5938 70.3831 18.6486 70.3831 18.7177V25.5354C70.3831 25.6045 70.3282 25.6594 70.2591 25.6594L69.4989 25.6614C69.4298 25.6614 69.3749 25.6065 69.3749 25.5374C69.3749 25.5374 69.3749 25.0435 69.3749 24.5109C69.3749 24.4459 69.3221 24.4174 69.2814 24.4174C69.2387 24.4174 69.2123 24.4479 69.1879 24.4906C68.7427 25.2427 68.1004 25.7752 66.9032 25.7752Z" fill="#0E2638"/>
<path d="M85.0937 18.478C86.5653 18.478 87.6549 19.4822 87.6549 21.4559V25.5355C87.6549 25.6046 87.6 25.6595 87.5309 25.6595H86.7178C86.6487 25.6595 86.5938 25.6046 86.5938 25.5355V21.4864C86.5938 20.34 85.9759 19.4354 84.6648 19.4354C83.3943 19.4354 82.6748 20.4213 82.6748 21.4864V25.5355C82.6748 25.6046 82.6199 25.6595 82.5508 25.6595H81.7377C81.6686 25.6595 81.6137 25.6046 81.6137 25.5355V18.7179C81.6137 18.6488 81.6686 18.5939 81.7377 18.5939L82.4979 18.5919C82.567 18.5919 82.6219 18.6467 82.6219 18.7159C82.6219 18.7159 82.6219 19.2098 82.6219 19.7424C82.6219 19.8074 82.6748 19.8359 82.7154 19.8359C82.7581 19.8359 82.7845 19.8054 82.8089 19.7627C83.2521 19.0106 83.8944 18.478 85.0937 18.478Z" fill="#0E2638"/>
<path d="M61.5003 20.4395C62.1385 19.9293 62.5512 19.1589 62.5512 18.2849C62.5512 16.7502 61.3072 15.5042 59.7237 15.5042H56.069C55.7966 15.5042 55.575 15.7257 55.575 15.9981V25.1655C55.575 25.4379 55.7966 25.6594 56.069 25.6594H60.1628C61.7442 25.6594 62.9902 24.4154 62.9902 22.8787C62.9902 21.8177 62.3886 20.907 61.5003 20.4395ZM56.6361 16.8112C56.6361 16.675 56.7458 16.5652 56.882 16.5652H59.6729C60.6892 16.5652 61.4698 17.3458 61.4698 18.3093C61.4698 19.2728 60.6892 20.0533 59.6729 20.0533H56.882C56.7458 20.0533 56.6361 19.9435 56.6361 19.8073V16.8112ZM60.114 24.6004H56.8841C56.7479 24.6004 56.6381 24.4907 56.6381 24.3545V21.3603C56.6381 21.2241 56.7479 21.1144 56.8841 21.1144H60.114C61.1303 21.1144 61.9109 21.8949 61.9109 22.8584C61.9109 23.8199 61.1303 24.6004 60.114 24.6004Z" fill="#0E2638"/>
<path d="M79.4733 16.6872C79.8 16.6872 80.0648 16.4223 80.0648 16.0957C80.0648 15.769 79.8 15.5042 79.4733 15.5042C79.1466 15.5042 78.8818 15.769 78.8818 16.0957C78.8818 16.4223 79.1466 16.6872 79.4733 16.6872Z" fill="#0E2638"/>
<path d="M78.9448 18.7177C78.9448 18.6486 78.9997 18.5938 79.0688 18.5938H79.8818C79.951 18.5938 80.0018 18.6486 80.0018 18.7177V25.5354C80.0018 25.6045 79.9489 25.6594 79.8818 25.6594H79.0688C78.9997 25.6594 78.9448 25.6045 78.9448 25.5354V18.7177Z" fill="#0E2638"/>
<path d="M100.227 21.6063C99.4119 21.4904 98.2228 21.3827 98.2228 20.5086C98.2228 19.8581 99.0135 19.3805 99.9465 19.3805C100.735 19.3805 101.414 19.6589 101.841 19.9862C101.89 20.0248 101.975 20.0086 102.01 19.9577L102.392 19.3195C102.418 19.2707 102.418 19.2057 102.369 19.163C101.776 18.6589 100.821 18.3926 99.9465 18.3926C98.113 18.3926 97.1699 19.4882 97.1699 20.5432C97.1699 21.7729 98.2675 22.2913 99.5827 22.5169C100.528 22.6795 101.731 22.8543 101.731 23.7141C101.731 24.4215 100.861 24.8687 99.8286 24.8687C98.7798 24.8687 98.0419 24.4134 97.6821 24.1613C97.6211 24.1187 97.554 24.1288 97.5114 24.1837L97.0886 24.8098C97.0642 24.8545 97.0662 24.9175 97.113 24.9602C97.5683 25.3769 98.5866 25.8586 99.8367 25.8586C101.739 25.8586 102.788 24.8057 102.788 23.6511C102.784 22.3035 101.583 21.7994 100.227 21.6063Z" fill="#0E2638"/>
</svg>
