<svg width="80" height="80" viewBox="0 0 80 80" fill="none" xmlns="http://www.w3.org/2000/svg">
<g clip-path="url(#clip0_122_2300)">
<path d="M76.7816 46.3864C76.7823 40.8969 75.5543 35.4768 73.1875 30.5237C70.8208 25.5706 67.3754 21.2101 63.104 17.7619C58.8326 14.3137 53.8435 11.8654 48.5027 10.5964C43.1619 9.32737 37.6047 9.26993 32.2388 10.4282C26.8729 11.5866 21.8343 13.9313 17.4926 17.2904C13.1508 20.6496 9.616 24.938 7.14738 29.8411C4.67876 34.7442 3.33893 40.1377 3.22615 45.6261C3.11337 51.1144 4.23051 56.5584 6.49563 61.5588H73.5044C75.6679 56.7934 76.7854 51.6199 76.7816 46.3864Z" fill="#F3F4F5"/>
<path d="M4.13794 61.5588H75.8621" stroke="#6E7D88" stroke-width="2" stroke-linecap="round" stroke-linejoin="round"/>
<path d="M0 61.5588H2.29885" stroke="#6E7D88" stroke-width="2" stroke-linecap="round" stroke-linejoin="round"/>
<path d="M77.7012 61.5588H80" stroke="#6E7D88" stroke-width="2" stroke-linecap="round" stroke-linejoin="round"/>
<path d="M21.3728 28.3928V20.5693C21.3728 20.4923 21.3576 20.416 21.3281 20.3448C21.2986 20.2736 21.2554 20.209 21.2009 20.1545C21.1465 20.1 21.0818 20.0568 21.0106 20.0273C20.9394 19.9978 20.8631 19.9827 20.7861 19.9827H14.9176C14.762 19.9827 14.6128 20.0445 14.5028 20.1545C14.3927 20.2645 14.3309 20.4137 14.3309 20.5693V34.6503L21.3728 28.3928Z" fill="#DBDEE1" stroke="#6E7D88" stroke-width="2" stroke-linecap="round" stroke-linejoin="round"/>
<path d="M19.6477 17.0457H16.0569C15.9105 17.0457 15.7702 17.1038 15.6667 17.2073C15.5633 17.3107 15.5051 17.4511 15.5051 17.5974V19.9827H20.1994V17.5974C20.1994 17.4511 20.1413 17.3107 20.0378 17.2073C19.9343 17.1038 19.794 17.0457 19.6477 17.0457Z" fill="#DBDEE1" stroke="#6E7D88" stroke-width="2" stroke-linecap="round" stroke-linejoin="round"/>
<path d="M55.4068 25.2637H24.8937L12.1792 36.5621C12.0904 36.6413 12.0279 36.7456 11.9998 36.8612C11.9717 36.9768 11.9794 37.0982 12.0219 37.2093C12.0643 37.3204 12.1396 37.416 12.2377 37.4833C12.3357 37.5507 12.4519 37.5867 12.5709 37.5864H67.7295C67.8485 37.5867 67.9647 37.5507 68.0628 37.4833C68.1608 37.416 68.2361 37.3204 68.2786 37.2093C68.3211 37.0982 68.3288 36.9768 68.3007 36.8612C68.2726 36.7456 68.21 36.6413 68.1213 36.5621L55.4068 25.2637Z" fill="#DBDEE1"/>
<path d="M55.4068 25.2637H24.8937L12.1792 36.5621C12.0904 36.6413 12.0279 36.7456 11.9998 36.8612C11.9717 36.9768 11.9794 37.0982 12.0219 37.2093C12.0643 37.3204 12.1396 37.416 12.2377 37.4833C12.3357 37.5507 12.4519 37.5867 12.5709 37.5864H67.7295C67.8485 37.5867 67.9647 37.5507 68.0628 37.4833C68.1608 37.416 68.2361 37.3204 68.2786 37.2093C68.3211 37.0982 68.3288 36.9768 68.3007 36.8612C68.2726 36.7456 68.21 36.6413 68.1213 36.5621L55.4068 25.2637Z" stroke="#6E7D88" stroke-width="2" stroke-linecap="round" stroke-linejoin="round"/>
<path d="M54.4874 21.7424H25.8133C25.5695 21.7424 25.3356 21.8393 25.1631 22.0118C24.9907 22.1842 24.8938 22.4181 24.8938 22.662V25.2634H55.4069V22.662C55.4069 22.4181 55.31 22.1842 55.1376 22.0118C54.9651 21.8393 54.7312 21.7424 54.4874 21.7424Z" fill="white" stroke="#6E7D88" stroke-width="2" stroke-linecap="round" stroke-linejoin="round"/>
<path d="M67.7295 37.5862H12.5709V69.8602H67.7295V37.5862Z" fill="white"/>
<path d="M67.7295 37.5862H12.5709V69.8602H67.7295V37.5862Z" stroke="#6E7D88" stroke-width="2" stroke-linecap="round" stroke-linejoin="round"/>
<path d="M48.9515 37.5862H31.3478V69.8602H48.9515V37.5862Z" stroke="#6E7D88" stroke-width="2" stroke-linecap="round" stroke-linejoin="round"/>
<path d="M30.1746 37.5865L39.4684 30.9115C39.6673 30.7693 39.9057 30.6929 40.1502 30.6929C40.3947 30.6929 40.6331 30.7693 40.832 30.9115L50.1258 37.5865H30.1746Z" fill="white" stroke="#6E7D88" stroke-width="2" stroke-linecap="round" stroke-linejoin="round"/>
<path d="M68.3162 69.8605H11.9843V65.1662C11.9843 65.0892 11.9994 65.0129 12.0289 64.9417C12.0584 64.8706 12.1016 64.8059 12.1561 64.7514C12.2106 64.6969 12.2752 64.6537 12.3464 64.6242C12.4176 64.5948 12.4939 64.5796 12.5709 64.5796H67.7295C67.8066 64.5796 67.8829 64.5948 67.954 64.6242C68.0252 64.6537 68.0899 64.6969 68.1444 64.7514C68.1988 64.8059 68.2421 64.8706 68.2715 64.9417C68.301 65.0129 68.3162 65.0892 68.3162 65.1662V69.8605Z" fill="#DBDEE1" stroke="#6E7D88" stroke-width="2" stroke-linecap="round" stroke-linejoin="round"/>
<path d="M50.1258 64.5796H30.1746V69.8605H50.1258V64.5796Z" fill="#DBDEE1" stroke="#6E7D88" stroke-width="2" stroke-linecap="round" stroke-linejoin="round"/>
<path d="M41.9108 57.5376H38.3899V64.5794H41.9108V57.5376Z" fill="#DBDEE1" stroke="#6E7D88" stroke-width="2" stroke-linecap="round" stroke-linejoin="round"/>
<path d="M35.9253 57.5377H44.3749L40.6582 54.4397C40.5154 54.3212 40.3357 54.2563 40.1501 54.2563C39.9646 54.2563 39.7848 54.3212 39.6421 54.4397L35.9253 57.5377Z" fill="white" stroke="#6E7D88" stroke-width="2" stroke-linecap="round" stroke-linejoin="round"/>
<path d="M34.8689 57.5376H45.4317" stroke="#6E7D88" stroke-width="2" stroke-linecap="round" stroke-linejoin="round"/>
<path d="M38.3897 57.5376H35.4554V64.5794H38.3897V57.5376Z" fill="#DBDEE1" stroke="#6E7D88" stroke-width="2" stroke-linecap="round" stroke-linejoin="round"/>
<path d="M44.8449 57.5376H41.9106V64.5794H44.8449V57.5376Z" fill="#DBDEE1" stroke="#6E7D88" stroke-width="2" stroke-linecap="round" stroke-linejoin="round"/>
<path d="M44.844 64.5796H35.4554V66.9272H44.844V64.5796Z" fill="white" stroke="#6E7D88" stroke-width="2" stroke-linecap="round" stroke-linejoin="round"/>
<path d="M46.0183 69.8605H34.2822V68.0996C34.2822 67.7884 34.4058 67.49 34.6259 67.2699C34.8459 67.0499 35.1444 66.9263 35.4556 66.9263H44.845C45.1562 66.9263 45.4546 67.0499 45.6747 67.2699C45.8947 67.49 46.0183 67.7884 46.0183 68.0996V69.8605Z" fill="white" stroke="#6E7D88" stroke-width="2" stroke-linecap="round" stroke-linejoin="round"/>
<path d="M43.0841 42.2805V42.8672C43.0841 41.3122 41.7048 40.5205 40.1498 40.5205C38.5949 40.5205 37.2165 41.3122 37.2165 42.8672V42.2805H35.4556C35.3014 42.2805 35.1487 42.3109 35.0063 42.3699C34.8639 42.4289 34.7345 42.5154 34.6256 42.6245C34.5166 42.7335 34.4302 42.863 34.3713 43.0055C34.3124 43.1479 34.2821 43.3006 34.2822 43.4548V48.149H46.0183V43.4548C46.0184 43.3006 45.9882 43.1479 45.9293 43.0055C45.8704 42.863 45.7839 42.7335 45.675 42.6245C45.566 42.5154 45.4366 42.4289 45.2942 42.3699C45.1518 42.3109 44.9991 42.2805 44.845 42.2805H43.0841Z" fill="#DBDEE1"/>
<path d="M37.2164 48.149H43.084V42.8672C43.084 41.3122 41.7047 40.5205 40.1498 40.5205C38.5948 40.5205 37.2164 41.3122 37.2164 42.8672V48.149Z" stroke="#6E7D88" stroke-width="2" stroke-linecap="round" stroke-linejoin="round"/>
<path d="M37.2165 42.2808H35.2018C34.9579 42.2808 34.724 42.3776 34.5516 42.5501C34.3791 42.7225 34.2822 42.9564 34.2822 43.2003V48.1493H37.2165V42.2808Z" stroke="#6E7D88" stroke-width="2" stroke-linecap="round" stroke-linejoin="round"/>
<path d="M45.0988 42.2808H43.0841V48.1493H46.0184V43.2003C46.0184 42.9564 45.9215 42.7225 45.749 42.5501C45.5766 42.3776 45.3427 42.2808 45.0988 42.2808Z" stroke="#6E7D88" stroke-width="2" stroke-linecap="round" stroke-linejoin="round"/>
<path d="M24.8936 34.6493H27.2403C27.5516 34.6491 27.85 34.5252 28.07 34.305C28.29 34.0849 28.4136 33.7863 28.4136 33.475V31.7923C28.4134 31.5897 28.3607 31.3906 28.2608 31.2143C28.1609 31.0381 28.0172 30.8906 27.8435 30.7863L26.6702 30.0819C26.4877 29.9727 26.2791 29.915 26.0665 29.915C25.8539 29.915 25.6452 29.9727 25.4628 30.0819L24.2886 30.7863C24.115 30.8907 23.9714 31.0381 23.8716 31.2144C23.7719 31.3907 23.7194 31.5898 23.7194 31.7923V33.475C23.7192 33.6293 23.7495 33.782 23.8085 33.9246C23.8675 34.0671 23.954 34.1966 24.063 34.3056C24.1721 34.4147 24.3016 34.5012 24.4441 34.5602C24.5866 34.6191 24.7394 34.6494 24.8936 34.6493Z" fill="white" stroke="#6E7D88" stroke-width="2" stroke-linecap="round" stroke-linejoin="round"/>
<path d="M27.2406 48.1493H24.3073V42.2808H26.0673C26.2214 42.2808 26.3741 42.3111 26.5165 42.3702C26.6589 42.4292 26.7883 42.5157 26.8972 42.6247C27.0062 42.7338 27.0926 42.8633 27.1515 43.0057C27.2104 43.1482 27.2407 43.3009 27.2406 43.455V48.1493Z" fill="#DBDEE1"/>
<path d="M20.7861 48.1494H27.828" stroke="#6E7D88" stroke-width="2" stroke-linecap="round" stroke-linejoin="round"/>
<path d="M27.2406 48.1493H24.3073V42.2808H26.0673C26.2214 42.2808 26.3741 42.3111 26.5165 42.3702C26.6589 42.4292 26.7883 42.5157 26.8972 42.6247C27.0062 42.7338 27.0926 42.8633 27.1515 43.0057C27.2104 43.1482 27.2407 43.3009 27.2406 43.455V48.1493Z" stroke="#6E7D88" stroke-width="2" stroke-linecap="round" stroke-linejoin="round"/>
<path d="M24.3071 48.1493H21.3728V43.455C21.3727 43.3009 21.4029 43.1482 21.4619 43.0057C21.5208 42.8633 21.6072 42.7338 21.7161 42.6247C21.8251 42.5157 21.9545 42.4292 22.0969 42.3702C22.2393 42.3111 22.392 42.2808 22.5461 42.2808H24.3071V48.1493Z" fill="#DBDEE1"/>
<path d="M24.3071 48.1493H21.3728V43.455C21.3727 43.3009 21.4029 43.1482 21.4619 43.0057C21.5208 42.8633 21.6072 42.7338 21.7161 42.6247C21.8251 42.5157 21.9545 42.4292 22.0969 42.3702C22.2393 42.3111 22.392 42.2808 22.5461 42.2808H24.3071V48.1493Z" stroke="#6E7D88" stroke-width="2" stroke-linecap="round" stroke-linejoin="round"/>
<path d="M27.2406 60.4718H24.3073V54.6033H26.0673C26.2213 54.6033 26.3739 54.6336 26.5163 54.6926C26.6586 54.7516 26.788 54.838 26.8969 54.9469C27.0059 55.0559 27.0923 55.1852 27.1513 55.3276C27.2102 55.4699 27.2406 55.6225 27.2406 55.7766V60.4718Z" fill="#DBDEE1"/>
<path d="M20.7861 60.4719H27.828" stroke="#6E7D88" stroke-width="2" stroke-linecap="round" stroke-linejoin="round"/>
<path d="M27.2406 60.4718H24.3073V54.6033H26.0673C26.2213 54.6033 26.3739 54.6336 26.5163 54.6926C26.6586 54.7516 26.788 54.838 26.8969 54.9469C27.0059 55.0559 27.0923 55.1852 27.1513 55.3276C27.2102 55.4699 27.2406 55.6225 27.2406 55.7766V60.4718Z" stroke="#6E7D88" stroke-width="2" stroke-linecap="round" stroke-linejoin="round"/>
<path d="M24.3071 60.4718H21.3728V55.7766C21.3728 55.4654 21.4964 55.167 21.7165 54.9469C21.9365 54.7269 22.2349 54.6033 22.5461 54.6033H24.3071V60.4718Z" fill="#DBDEE1"/>
<path d="M24.3071 60.4718H21.3728V55.7766C21.3728 55.4654 21.4964 55.167 21.7165 54.9469C21.9365 54.7269 22.2349 54.6033 22.5461 54.6033H24.3071V60.4718Z" stroke="#6E7D88" stroke-width="2" stroke-linecap="round" stroke-linejoin="round"/>
<path d="M58.9278 48.1493H55.9935V42.2808H57.7545C57.9086 42.2808 58.0613 42.3111 58.2037 42.3702C58.3461 42.4292 58.4755 42.5157 58.5845 42.6247C58.6934 42.7338 58.7798 42.8633 58.8387 43.0057C58.8976 43.1482 58.9279 43.3009 58.9278 43.455V48.1493Z" fill="#DBDEE1"/>
<path d="M52.4725 48.1494H59.5144" stroke="#6E7D88" stroke-width="2" stroke-linecap="round" stroke-linejoin="round"/>
<path d="M58.9278 48.1493H55.9935V42.2808H57.7545C57.9086 42.2808 58.0613 42.3111 58.2037 42.3702C58.3461 42.4292 58.4755 42.5157 58.5845 42.6247C58.6934 42.7338 58.7798 42.8633 58.8387 43.0057C58.8976 43.1482 58.9279 43.3009 58.9278 43.455V48.1493Z" stroke="#6E7D88" stroke-width="2" stroke-linecap="round" stroke-linejoin="round"/>
<path d="M55.9933 48.1493H53.0573V43.455C53.0571 43.3009 53.0874 43.1482 53.1463 43.0057C53.2052 42.8633 53.2916 42.7338 53.4006 42.6247C53.5096 42.5157 53.6389 42.4292 53.7814 42.3702C53.9238 42.3111 54.0764 42.2808 54.2306 42.2808H55.9906L55.9933 48.1493Z" fill="#DBDEE1"/>
<path d="M55.9933 48.1493H53.0573V43.455C53.0571 43.3009 53.0874 43.1482 53.1463 43.0057C53.2052 42.8633 53.2916 42.7338 53.4006 42.6247C53.5096 42.5157 53.6389 42.4292 53.7814 42.3702C53.9238 42.3111 54.0764 42.2808 54.2306 42.2808H55.9906L55.9933 48.1493Z" stroke="#6E7D88" stroke-width="2" stroke-linecap="round" stroke-linejoin="round"/>
<path d="M58.9278 60.4718H55.9935V54.6033H57.7545C58.0656 54.6033 58.3641 54.7269 58.5841 54.9469C58.8042 55.167 58.9278 55.4654 58.9278 55.7766V60.4718Z" fill="#DBDEE1"/>
<path d="M52.4725 60.4719H59.5144" stroke="#6E7D88" stroke-width="2" stroke-linecap="round" stroke-linejoin="round"/>
<path d="M58.9278 60.4718H55.9935V54.6033H57.7545C58.0656 54.6033 58.3641 54.7269 58.5841 54.9469C58.8042 55.167 58.9278 55.4654 58.9278 55.7766V60.4718Z" stroke="#6E7D88" stroke-width="2" stroke-linecap="round" stroke-linejoin="round"/>
<path d="M55.9933 60.4718H53.0573V55.7766C53.0573 55.4654 53.1809 55.167 53.4009 54.9469C53.621 54.7269 53.9194 54.6033 54.2306 54.6033H55.9906L55.9933 60.4718Z" fill="#DBDEE1"/>
<path d="M55.9933 60.4718H53.0573V55.7766C53.0573 55.4654 53.1809 55.167 53.4009 54.9469C53.621 54.7269 53.9194 54.6033 54.2306 54.6033H55.9906L55.9933 60.4718Z" stroke="#6E7D88" stroke-width="2" stroke-linecap="round" stroke-linejoin="round"/>
<path d="M17.8518 22.917C17.5406 22.917 17.2422 23.0406 17.0221 23.2607C16.8021 23.4807 16.6785 23.7791 16.6785 24.0903V25.8503C16.6785 26.0059 16.7403 26.1551 16.8503 26.2652C16.9603 26.3752 17.1095 26.437 17.2651 26.437H18.4385C18.5155 26.4371 18.5919 26.422 18.6631 26.3926C18.7344 26.3631 18.7991 26.3199 18.8536 26.2654C18.9081 26.2109 18.9513 26.1462 18.9807 26.075C19.0102 26.0037 19.0253 25.9274 19.0251 25.8503V24.0903C19.0251 23.7791 18.9015 23.4807 18.6815 23.2607C18.4614 23.0406 18.163 22.917 17.8518 22.917Z" fill="white" stroke="#6E7D88" stroke-width="2" stroke-linecap="round" stroke-linejoin="round"/>
<path d="M58.9277 28.3928V20.5693C58.9277 20.4137 58.9895 20.2645 59.0996 20.1545C59.2096 20.0445 59.3588 19.9827 59.5144 19.9827H65.3792C65.5348 19.9827 65.684 20.0445 65.7941 20.1545C65.9041 20.2645 65.9659 20.4137 65.9659 20.5693V34.6503L58.9277 28.3928Z" fill="#DBDEE1" stroke="#6E7D88" stroke-width="2" stroke-linecap="round" stroke-linejoin="round"/>
<path d="M60.6527 17.0457H64.2435C64.3898 17.0457 64.5301 17.1038 64.6336 17.2073C64.7371 17.3107 64.7952 17.4511 64.7952 17.5974V19.9827H60.101V17.5974C60.101 17.4511 60.1591 17.3107 60.2625 17.2073C60.366 17.1038 60.5063 17.0457 60.6527 17.0457Z" fill="#DBDEE1" stroke="#6E7D88" stroke-width="2" stroke-linecap="round" stroke-linejoin="round"/>
<path d="M62.4486 22.917C62.7598 22.917 63.0582 23.0406 63.2783 23.2607C63.4983 23.4807 63.6219 23.7791 63.6219 24.0903V25.8503C63.6219 26.0059 63.5601 26.1551 63.4501 26.2652C63.3401 26.3752 63.1909 26.437 63.0353 26.437H61.8619C61.7849 26.4371 61.7085 26.422 61.6373 26.3926C61.5661 26.3631 61.5013 26.3199 61.4468 26.2654C61.3923 26.2109 61.3491 26.1462 61.3197 26.075C61.2902 26.0037 61.2751 25.9274 61.2753 25.8503V24.0903C61.2753 23.7791 61.3989 23.4807 61.6189 23.2607C61.839 23.0406 62.1374 22.917 62.4486 22.917Z" fill="white" stroke="#6E7D88" stroke-width="2" stroke-linecap="round" stroke-linejoin="round"/>
<path d="M30.5865 21.7424V25.2634" stroke="#6E7D88" stroke-width="2" stroke-linecap="round" stroke-linejoin="round"/>
<path d="M36.7079 21.7424V25.2634" stroke="#6E7D88" stroke-width="2" stroke-linecap="round" stroke-linejoin="round"/>
<path d="M42.8302 21.7424V25.2634" stroke="#6E7D88" stroke-width="2" stroke-linecap="round" stroke-linejoin="round"/>
<path d="M48.9524 21.7424V25.2634" stroke="#6E7D88" stroke-width="2" stroke-linecap="round" stroke-linejoin="round"/>
<path d="M53.0573 34.6493H55.404C55.5581 34.6493 55.7108 34.6189 55.8532 34.5599C55.9956 34.5008 56.125 34.4143 56.234 34.3053C56.3429 34.1962 56.4293 34.0668 56.4883 33.9243C56.5472 33.7819 56.5774 33.6292 56.5773 33.475V31.7923C56.5772 31.5897 56.5248 31.3907 56.4251 31.2144C56.3253 31.0381 56.1817 30.8906 56.0081 30.7863L54.8348 30.0819C54.6522 29.9727 54.4434 29.915 54.2306 29.915C54.0179 29.915 53.8091 29.9727 53.6265 30.0819L52.4532 30.7863C52.2795 30.8906 52.1357 31.038 52.0358 31.2143C51.9359 31.3906 51.8833 31.5897 51.8831 31.7923V33.475C51.8831 33.7865 52.0068 34.0851 52.227 34.3053C52.4472 34.5256 52.7459 34.6493 53.0573 34.6493Z" fill="white" stroke="#6E7D88" stroke-width="2" stroke-linecap="round" stroke-linejoin="round"/>
</g>
<defs>
<clipPath id="clip0_122_2300">
<rect width="80" height="80" fill="white"/>
</clipPath>
</defs>
</svg>
