<svg width="80" height="80" viewBox="0 0 80 80" fill="none" xmlns="http://www.w3.org/2000/svg">
<path d="M40 72C57.6731 72 72 57.6731 72 40C72 22.3269 57.6731 8 40 8C22.3269 8 8 22.3269 8 40C8 57.6731 22.3269 72 40 72Z" fill="#F3F4F5"/>
<path d="M50.4912 48.531H47.7656V57.2238C47.7656 57.3454 47.8139 57.462 47.8999 57.5479C47.9859 57.6339 48.1024 57.6822 48.224 57.6822H50.0328C50.1544 57.6822 50.271 57.6339 50.357 57.5479C50.4429 57.462 50.4912 57.3454 50.4912 57.2238V48.531Z" fill="white" stroke="#6E7D88" stroke-width="2" stroke-linecap="round" stroke-linejoin="round"/>
<path d="M55.3375 43.1999C55.4165 43.2002 55.4939 43.1777 55.5605 43.1352C55.6271 43.0927 55.6801 43.032 55.7131 42.9603C55.7462 42.8885 55.7579 42.8088 55.7469 42.7306C55.7359 42.6524 55.7027 42.5789 55.6511 42.5191L51.4911 37.6631C51.4397 37.6031 51.4065 37.5297 51.3956 37.4515C51.3847 37.3732 51.3964 37.2935 51.4294 37.2217C51.4624 37.15 51.5153 37.0892 51.5819 37.0466C51.6484 37.004 51.7257 36.9814 51.8047 36.9815H53.5647C53.6437 36.9816 53.7209 36.959 53.7874 36.9165C53.8539 36.874 53.9067 36.8132 53.9397 36.7415C53.9726 36.6698 53.9843 36.5901 53.9733 36.512C53.9623 36.4338 53.929 36.3605 53.8775 36.3007L49.4399 31.1295C49.4012 31.0844 49.3531 31.0481 49.2991 31.0233C49.245 30.9985 49.1862 30.9856 49.1267 30.9856C49.0672 30.9856 49.0085 30.9985 48.9544 31.0233C48.9003 31.0481 48.8523 31.0844 48.8135 31.1295L44.3807 36.3015C44.3292 36.3613 44.296 36.4346 44.285 36.5128C44.274 36.5909 44.2856 36.6706 44.3186 36.7423C44.3515 36.814 44.4044 36.8747 44.4709 36.9173C44.5373 36.9598 44.6146 36.9824 44.6935 36.9823H46.4535C46.5325 36.9822 46.6099 37.0048 46.6764 37.0474C46.7429 37.09 46.7958 37.1508 46.8289 37.2225C46.8619 37.2943 46.8736 37.374 46.8627 37.4523C46.8517 37.5305 46.8186 37.6039 46.7671 37.6639L42.6071 42.5199C42.5556 42.5798 42.5224 42.6532 42.5114 42.7314C42.5004 42.8096 42.5121 42.8893 42.5452 42.9611C42.5782 43.0328 42.6312 43.0935 42.6978 43.136C42.7644 43.1785 42.8417 43.201 42.9207 43.2007H45.5839C45.6627 43.2001 45.7401 43.222 45.8068 43.2639C45.8735 43.3058 45.9269 43.3659 45.9605 43.4372C45.9942 43.5085 46.0067 43.5879 45.9967 43.666C45.9867 43.7442 45.9545 43.8178 45.9039 43.8783L42.5903 47.8543C42.54 47.9148 42.508 47.9883 42.4982 48.0664C42.4883 48.1444 42.5009 48.2236 42.5345 48.2947C42.5681 48.3659 42.6213 48.4259 42.6879 48.4678C42.7545 48.5096 42.8317 48.5316 42.9103 48.5311H55.3543C55.433 48.5316 55.5102 48.5096 55.5767 48.4678C55.6433 48.4259 55.6966 48.3659 55.7302 48.2947C55.7638 48.2236 55.7764 48.1444 55.7665 48.0664C55.7566 47.9883 55.7246 47.9148 55.6743 47.8543L52.3607 43.8783C52.3102 43.8178 52.278 43.7442 52.268 43.666C52.2579 43.5879 52.2705 43.5085 52.3041 43.4372C52.3378 43.3659 52.3911 43.3058 52.4579 43.2639C52.5246 43.222 52.6019 43.2001 52.6807 43.2007L55.3375 43.1999Z" fill="#DBDEE1" stroke="#6E7D88" stroke-width="2" stroke-linecap="round" stroke-linejoin="round"/>
<path d="M65.28 43.6289H62.552V52.3201C62.552 52.4417 62.6003 52.5583 62.6863 52.6442C62.7722 52.7302 62.8888 52.7785 63.0104 52.7785H64.8192C64.8796 52.7787 64.9394 52.767 64.9952 52.7441C65.0511 52.7212 65.1019 52.6874 65.1447 52.6449C65.1875 52.6023 65.2214 52.5517 65.2447 52.496C65.2679 52.4402 65.2799 52.3805 65.28 52.3201V43.6289Z" fill="white" stroke="#6E7D88" stroke-width="2" stroke-linecap="round" stroke-linejoin="round"/>
<path d="M70.4375 37.6168L66.2775 32.7608C66.2263 32.7008 66.1934 32.6275 66.1826 32.5494C66.1718 32.4713 66.1836 32.3917 66.2166 32.3201C66.2496 32.2485 66.3024 32.1878 66.3687 32.1453C66.4351 32.1027 66.5123 32.0801 66.5911 32.08H68.3511C68.4301 32.0801 68.5075 32.0575 68.574 32.0149C68.6405 31.9723 68.6934 31.9115 68.7265 31.8398C68.7595 31.768 68.7712 31.6883 68.7603 31.61C68.7493 31.5318 68.7162 31.4584 68.6647 31.3984L64.2319 26.2264C64.1932 26.1813 64.1451 26.1451 64.0911 26.1202C64.037 26.0954 63.9782 26.0825 63.9187 26.0825C63.8592 26.0825 63.8005 26.0954 63.7464 26.1202C63.6923 26.1451 63.6443 26.1813 63.6055 26.2264L59.1727 31.3984C59.1213 31.4583 59.0882 31.5317 59.0772 31.6098C59.0663 31.688 59.0779 31.7677 59.1108 31.8394C59.1438 31.9111 59.1965 31.9719 59.263 32.0146C59.3294 32.0572 59.4066 32.0799 59.4855 32.08H61.2455C61.3244 32.0799 61.4017 32.1025 61.4682 32.145C61.5347 32.1876 61.5875 32.2483 61.6205 32.32C61.6534 32.3917 61.6651 32.4714 61.6541 32.5495C61.643 32.6277 61.6098 32.701 61.5583 32.7608L57.3983 37.6168C57.3469 37.6767 57.3138 37.7501 57.3028 37.8282C57.2919 37.9064 57.3035 37.9861 57.3364 38.0578C57.3694 38.1295 57.4222 38.1903 57.4886 38.233C57.555 38.2756 57.6322 38.2983 57.7111 38.2984H60.3751C60.4538 38.2979 60.531 38.3199 60.5975 38.3618C60.6641 38.4036 60.7174 38.4637 60.751 38.5348C60.7846 38.6059 60.7972 38.6851 60.7873 38.7631C60.7774 38.8412 60.7454 38.9148 60.6951 38.9752L57.3815 42.9512C57.331 43.0117 57.2988 43.0853 57.2888 43.1635C57.2787 43.2417 57.2913 43.3211 57.3249 43.3923C57.3586 43.4636 57.4119 43.5237 57.4787 43.5656C57.5454 43.6075 57.6227 43.6295 57.7015 43.6288H70.1407C70.2195 43.6295 70.2969 43.6075 70.3636 43.5656C70.4303 43.5237 70.4837 43.4636 70.5173 43.3923C70.551 43.3211 70.5635 43.2417 70.5535 43.1635C70.5435 43.0853 70.5113 43.0117 70.4607 42.9512L67.1471 38.9752C67.0968 38.9148 67.0648 38.8412 67.0549 38.7631C67.0451 38.6851 67.0577 38.6059 67.0913 38.5348C67.1249 38.4637 67.1781 38.4036 67.2447 38.3618C67.3113 38.3199 67.3885 38.2979 67.4671 38.2984H70.1303C70.2088 38.2973 70.2853 38.2738 70.3509 38.2307C70.4164 38.1877 70.4684 38.1268 70.5006 38.0553C70.5329 37.9838 70.544 37.9045 70.5329 37.8269C70.5217 37.7492 70.4886 37.6764 70.4375 37.6168Z" fill="#DBDEE1" stroke="#6E7D88" stroke-width="2" stroke-linecap="round" stroke-linejoin="round"/>
<path d="M29.9201 43.4297H24.6177V53.1769C24.6177 53.3891 24.702 53.5925 24.852 53.7426C25.002 53.8926 25.2055 53.9769 25.4177 53.9769H29.1201C29.3323 53.9769 29.5357 53.8926 29.6858 53.7426C29.8358 53.5925 29.9201 53.3891 29.9201 53.1769V43.4297Z" fill="white" stroke="#6E7D88" stroke-width="2" stroke-linecap="round" stroke-linejoin="round"/>
<path d="M39.3554 33.056C39.5095 33.0572 39.6607 33.0139 39.7908 32.9313C39.9208 32.8487 40.0243 32.7303 40.0887 32.5902C40.1531 32.4502 40.1757 32.2946 40.1537 32.142C40.1318 31.9895 40.0662 31.8465 39.965 31.7304L31.865 22.28C31.7634 22.1638 31.6977 22.0208 31.6756 21.8681C31.6535 21.7154 31.676 21.5596 31.7404 21.4195C31.8049 21.2793 31.9084 21.1607 32.0387 21.0781C32.1689 20.9954 32.3203 20.9522 32.4746 20.9536H35.897C36.0511 20.955 36.2024 20.9118 36.3326 20.8292C36.4629 20.7467 36.5664 20.6283 36.6309 20.4882C36.6954 20.3482 36.7181 20.1925 36.6961 20.0398C36.6742 19.8872 36.6087 19.7442 36.5074 19.628L27.8802 9.56317C27.8051 9.47466 27.7116 9.40356 27.6063 9.35479C27.5009 9.30602 27.3862 9.28076 27.2702 9.28076C27.1541 9.28076 27.0394 9.30602 26.9341 9.35479C26.8287 9.40356 26.7353 9.47466 26.6602 9.56317L18.033 19.628C17.9317 19.7442 17.8661 19.8872 17.8442 20.0398C17.8222 20.1925 17.8449 20.3482 17.9094 20.4882C17.9739 20.6283 18.0775 20.7467 18.2077 20.8292C18.3379 20.9118 18.4892 20.955 18.6434 20.9536H22.0658C22.2201 20.952 22.3716 20.9951 22.5019 21.0777C22.6323 21.1603 22.736 21.2789 22.8005 21.4191C22.865 21.5593 22.8876 21.7152 22.8656 21.8679C22.8435 22.0207 22.7777 22.1638 22.6762 22.28L14.5754 31.7304C14.4741 31.8466 14.4085 31.9896 14.3866 32.1422C14.3646 32.2949 14.3873 32.4506 14.4518 32.5906C14.5163 32.7307 14.6198 32.8491 14.7501 32.9316C14.8803 33.0142 15.0316 33.0574 15.1858 33.056H20.369C20.5222 33.0547 20.6726 33.0974 20.8022 33.1791C20.9319 33.2608 21.0354 33.378 21.1003 33.5168C21.1653 33.6556 21.189 33.8101 21.1687 33.962C21.1484 34.1139 21.0849 34.2567 20.9858 34.3736L14.537 42.112C14.4378 42.2288 14.3743 42.3717 14.354 42.5236C14.3337 42.6755 14.3574 42.83 14.4224 42.9688C14.4874 43.1076 14.5908 43.2248 14.7205 43.3065C14.8501 43.3882 15.0005 43.4309 15.1538 43.4296H39.3866C39.5395 43.4303 39.6895 43.3871 39.8187 43.3052C39.9478 43.2232 40.0508 43.106 40.1154 42.9673C40.18 42.8286 40.2034 42.6744 40.183 42.5228C40.1626 42.3712 40.0991 42.2286 40.0002 42.112L33.5514 34.3736C33.4522 34.2567 33.3886 34.1137 33.3684 33.9618C33.3481 33.8098 33.3719 33.6552 33.4369 33.5164C33.502 33.3776 33.6056 33.2604 33.7354 33.1788C33.8652 33.0971 34.0156 33.0545 34.169 33.056H39.3554Z" fill="#DBDEE1" stroke="#6E7D88" stroke-width="2" stroke-linecap="round" stroke-linejoin="round"/>
<path d="M31.3601 67.5377L51.5705 69.8337C56.0467 68.0931 60.0749 65.3697 63.358 61.8644C66.641 58.3591 69.0952 54.1614 70.5393 49.5809C62.2368 48.68 53.8946 50.8837 47.1201 55.7673L31.3601 67.5377Z" fill="#DBDEE1"/>
<path d="M70.4513 49.8401C70.4793 49.7529 70.5121 49.6673 70.5393 49.5793C62.2366 48.6788 53.8944 50.883 47.1201 55.7673L31.3601 67.5377" stroke="#6E7D88" stroke-width="2" stroke-linecap="round" stroke-linejoin="round"/>
<path d="M10.3408 52.0153C12.0858 56.3226 14.7481 60.1981 18.1425 63.3724C21.5369 66.5467 25.5819 68.9436 29.9964 70.3963C34.4109 71.849 39.0888 72.3228 43.7049 71.7846C48.321 71.2465 52.7645 69.7093 56.7264 67.2801L44.7264 58.3201C35.0728 51.1097 21.9928 49.0233 10.3408 52.0153Z" fill="#DBDEE1"/>
<path d="M56.7264 67.2801L44.7264 58.3201C35.0696 51.1081 21.9896 49.0217 10.3376 52.0137" stroke="#6E7D88" stroke-width="2" stroke-linecap="round" stroke-linejoin="round"/>
</svg>
