<svg width="80" height="80" viewBox="0 0 80 80" fill="none" xmlns="http://www.w3.org/2000/svg">
<g clip-path="url(#clip0_119_3602)">
<rect width="80" height="80" fill="white"/>
<path d="M77.0127 42.8312C77.0134 37.358 75.789 31.9539 73.4293 27.0155C71.0695 22.0771 67.6343 17.7294 63.3756 14.2915C59.1168 10.8535 54.1425 8.41237 48.8175 7.14713C43.4925 5.88189 37.9518 5.82461 32.6018 6.97951C27.2518 8.1344 22.2281 10.4722 17.8992 13.8214C13.5703 17.1706 10.0459 21.4463 7.5846 26.3349C5.12329 31.2235 3.78742 36.601 3.67498 42.0731C3.56253 47.5453 4.67636 52.9731 6.93478 57.9587H73.7452C75.9027 53.2076 77.0169 48.0493 77.0127 42.8312V42.8312Z" fill="#F3F4F5"/>
<path d="M53.1775 67.5854H59.7382" stroke="#6E7D88" stroke-width="2" stroke-miterlimit="10" stroke-linecap="round"/>
<path d="M49.3499 67.5854H50.99" stroke="#6E7D88" stroke-width="2" stroke-miterlimit="10" stroke-linecap="round"/>
<path d="M46.6157 67.5854H47.1631" stroke="#6E7D88" stroke-width="2" stroke-miterlimit="10" stroke-linecap="round"/>
<path d="M25.8159 64.3765H32.3776" stroke="#6E7D88" stroke-width="2" stroke-miterlimit="10" stroke-linecap="round"/>
<path d="M21.989 64.3765H23.6292" stroke="#6E7D88" stroke-width="2" stroke-miterlimit="10" stroke-linecap="round"/>
<path d="M19.255 64.3765H19.8014" stroke="#6E7D88" stroke-width="2" stroke-miterlimit="10" stroke-linecap="round"/>
<path d="M36.0721 74.4614H42.6338" stroke="#6E7D88" stroke-width="2" stroke-miterlimit="10" stroke-linecap="round"/>
<path d="M32.2445 74.4614H33.8856" stroke="#6E7D88" stroke-width="2" stroke-miterlimit="10" stroke-linecap="round"/>
<path d="M29.5115 74.4614H30.0579" stroke="#6E7D88" stroke-width="2" stroke-miterlimit="10" stroke-linecap="round"/>
<path d="M4.12573 57.9587H75.6376" stroke="#6E7D88" stroke-width="2" stroke-linecap="round" stroke-linejoin="round"/>
<path d="M0 57.9587H2.29205" stroke="#6E7D88" stroke-width="2" stroke-linecap="round" stroke-linejoin="round"/>
<path d="M77.4712 57.9587H79.7632" stroke="#6E7D88" stroke-width="2" stroke-linecap="round" stroke-linejoin="round"/>
<path d="M40.3227 60.4926C51.6279 60.4926 60.7925 59.4324 60.7925 58.1245C60.7925 56.8166 51.6279 55.7563 40.3227 55.7563C29.0176 55.7563 19.8529 56.8166 19.8529 58.1245C19.8529 59.4324 29.0176 60.4926 40.3227 60.4926Z" fill="#DBDEE1"/>
<path d="M61.0896 32.8836L40.6656 15.1193C40.4987 14.974 40.2849 14.894 40.0637 14.894C39.8425 14.894 39.6287 14.974 39.4618 15.1193L19.5082 32.4728V57.0436C19.5082 57.2867 19.6048 57.5199 19.7767 57.6919C19.9486 57.8638 20.1818 57.9604 20.425 57.9604H60.1728C60.4159 57.9604 60.6491 57.8638 60.821 57.6919C60.993 57.5199 61.0896 57.2867 61.0896 57.0436V32.8836Z" fill="white" stroke="#6E7D88" stroke-width="2" stroke-linecap="round" stroke-linejoin="round"/>
<path d="M54.5776 40.9359C54.5773 37.4708 53.2007 34.1477 50.7505 31.6975C48.3003 29.2472 44.9771 27.8706 41.512 27.8704H39.0861C35.621 27.8706 32.2978 29.2472 29.8476 31.6975C27.3974 34.1477 26.0208 37.4708 26.0205 40.9359V57.9576H54.5776V40.9359Z" fill="#DBDEE1" stroke="#6E7D88" stroke-width="2" stroke-linecap="round" stroke-linejoin="round"/>
<path d="M42.8273 8.66492C42.0597 8.00092 41.0786 7.6355 40.0636 7.6355C39.0486 7.6355 38.0675 8.00092 37.2998 8.66492L14.8662 28.0731C14.5448 28.3453 14.2807 28.6786 14.0891 29.0536C13.8975 29.4287 13.7822 29.838 13.75 30.258C13.7177 30.6779 13.7691 31.1 13.9011 31.5C14.0332 31.8999 14.2433 32.2696 14.5193 32.5877C14.7953 32.9059 15.1316 33.1661 15.5089 33.3533C15.8862 33.5405 16.2968 33.651 16.7171 33.6783C17.1374 33.7057 17.5589 33.6493 17.9572 33.5126C18.3556 33.3759 18.7228 33.1615 19.0377 32.8818L39.4617 15.1193C39.6286 14.9741 39.8423 14.8941 40.0636 14.8941C40.2848 14.8941 40.4986 14.9741 40.6655 15.1193L61.0894 32.8836C61.4043 33.1633 61.7716 33.3777 62.1699 33.5144C62.5683 33.6512 62.9898 33.7075 63.4101 33.6802C63.8303 33.6528 64.241 33.5423 64.6183 33.3551C64.9955 33.1679 65.3319 32.9077 65.6079 32.5896C65.8839 32.2714 66.094 31.9017 66.226 31.5018C66.3581 31.1019 66.4095 30.6797 66.3772 30.2598C66.3449 29.8399 66.2297 29.4305 66.038 29.0555C65.8464 28.6804 65.5823 28.3471 65.261 28.0749L42.8273 8.66492Z" fill="#DBDEE1" stroke="#6E7D88" stroke-width="2" stroke-linecap="round" stroke-linejoin="round"/>
<path d="M40.2283 73.6189C48.1769 73.6189 54.6205 72.798 54.6205 71.7853C54.6205 70.7726 48.1769 69.9517 40.2283 69.9517C32.2797 69.9517 25.8361 70.7726 25.8361 71.7853C25.8361 72.798 32.2797 73.6189 40.2283 73.6189Z" fill="#DBDEE1"/>
<path d="M52.7116 71.4818C52.7391 71.0656 52.7531 70.6447 52.7537 70.2193C52.7537 61.7094 47.1162 54.8113 40.1631 54.8113C33.2099 54.8113 27.5724 61.7103 27.5724 70.2203C27.5724 70.6481 27.5864 71.0689 27.6146 71.4827L52.7116 71.4818Z" fill="white"/>
<path d="M31.4349 67.8483C32.6937 67.8475 33.9105 67.3953 34.8643 66.5738C35.8181 65.7523 36.4457 64.6159 36.633 63.3711C36.8203 62.1262 36.5549 60.8555 35.8851 59.7897C35.2152 58.7239 34.1853 57.9336 32.9824 57.5625C30.352 59.9035 28.5776 63.0549 27.9399 66.518C28.9017 67.3761 30.1459 67.8497 31.4349 67.8483V67.8483Z" fill="#DBDEE1"/>
<path d="M52.7116 71.4818C52.7391 71.0656 52.7531 70.6447 52.7537 70.2193C52.7537 61.7094 47.1162 54.8113 40.1631 54.8113C33.2099 54.8113 27.5724 61.7103 27.5724 70.2203C27.5724 70.6481 27.5864 71.0689 27.6146 71.4827L52.7116 71.4818Z" stroke="#6E7D88" stroke-width="2" stroke-linecap="round" stroke-linejoin="round"/>
<path d="M27.4744 71.4817C27.215 71.4798 26.9603 71.4121 26.7342 71.2851C26.5081 71.1581 26.3178 70.9758 26.1812 70.7553C26.0446 70.5348 25.9661 70.2833 25.953 70.0243C25.9399 69.7652 25.9927 69.5071 26.1065 69.274C26.5259 68.3828 27.1903 67.6293 28.022 67.1015C28.8536 66.5737 29.8183 66.2935 30.8033 66.2935C31.7883 66.2935 32.753 66.5737 33.5847 67.1015C34.4164 67.6293 35.0807 68.3828 35.5002 69.274C35.6139 69.5071 35.6667 69.7652 35.6537 70.0243C35.6406 70.2833 35.5621 70.5348 35.4255 70.7553C35.2889 70.9758 35.0986 71.1581 34.8725 71.2851C34.6463 71.4121 34.3917 71.4798 34.1323 71.4817H27.4744Z" fill="white" stroke="#6E7D88" stroke-width="2" stroke-linecap="round" stroke-linejoin="round"/>
<path d="M30.8032 69.1941V66.2942" stroke="#6E7D88" stroke-width="2" stroke-linecap="round" stroke-linejoin="round"/>
<path d="M47.109 71.4817C46.8496 71.4798 46.595 71.4121 46.3688 71.2851C46.1427 71.1581 45.9524 70.9758 45.8158 70.7553C45.6792 70.5348 45.6007 70.2833 45.5876 70.0243C45.5746 69.7652 45.6274 69.5071 45.7411 69.274C46.1606 68.3828 46.8249 67.6293 47.6566 67.1015C48.4883 66.5737 49.453 66.2935 50.438 66.2935C51.423 66.2935 52.3877 66.5737 53.2193 67.1015C54.051 67.6293 54.7154 68.3828 55.1348 69.274C55.2486 69.5071 55.3014 69.7652 55.2883 70.0243C55.2752 70.2833 55.1967 70.5348 55.0601 70.7553C54.9235 70.9758 54.7333 71.1581 54.5071 71.2851C54.281 71.4121 54.0263 71.4798 53.7669 71.4817H47.109Z" fill="white" stroke="#6E7D88" stroke-width="2" stroke-linecap="round" stroke-linejoin="round"/>
<path d="M50.438 69.1941V66.2942" stroke="#6E7D88" stroke-width="2" stroke-linecap="round" stroke-linejoin="round"/>
<path d="M35.8559 42.0794C36.1864 42.967 36.1607 43.948 35.7842 44.8171C35.4076 45.6862 34.7095 46.3759 33.8359 46.7418C32.9622 47.1076 31.981 47.1214 31.0975 46.78C30.214 46.4387 29.4968 45.7687 29.0962 44.9105C28.5177 43.5289 29.0962 39.714 29.4354 37.8244C29.4575 37.7045 29.5091 37.592 29.5857 37.497C29.6622 37.4021 29.7612 37.3277 29.8737 37.2807C29.9862 37.2336 30.1086 37.2154 30.23 37.2275C30.3513 37.2397 30.4677 37.282 30.5686 37.3504C32.1528 38.4341 35.2774 40.6977 35.8559 42.0794Z" fill="#DBDEE1" stroke="#6E7D88" stroke-width="2" stroke-linecap="round" stroke-linejoin="round"/>
<path d="M39.8054 62.3859C32.4764 62.3859 23.8757 42.842 39.8054 42.842C55.7351 42.842 47.1345 62.3859 39.8054 62.3859Z" fill="white"/>
<path d="M43.7552 42.0793C43.4178 42.9686 43.4391 43.9541 43.8146 44.8279C44.1901 45.7018 44.8903 46.3955 45.7676 46.7629C46.6449 47.1302 47.6306 47.1423 48.5166 46.7967C49.4027 46.4511 50.1198 45.7748 50.5167 44.9105C51.0952 43.5288 50.5167 39.7139 50.1775 37.8244C50.1553 37.7046 50.1037 37.5922 50.0272 37.4974C49.9508 37.4026 49.8519 37.3283 49.7395 37.2813C49.6271 37.2342 49.5048 37.2159 49.3836 37.228C49.2624 37.24 49.1461 37.2821 49.0452 37.3504C47.4582 38.4341 44.3337 40.6977 43.7552 42.0793Z" fill="#DBDEE1" stroke="#6E7D88" stroke-width="2" stroke-linecap="round" stroke-linejoin="round"/>
<path d="M34.3423 49.8356C34.4919 49.4821 34.7423 49.1805 35.0623 48.9684C35.3823 48.7564 35.7577 48.6433 36.1415 48.6433C36.5254 48.6433 36.9008 48.7564 37.2208 48.9684C37.5408 49.1805 37.7912 49.4821 37.9408 49.8356" stroke="#6E7D88" stroke-width="2" stroke-linecap="round" stroke-linejoin="round"/>
<path d="M46.7786 57.0234C49.9994 51.495 50.2314 43.5828 41.1356 42.8906C40.3911 44.1567 39.9462 45.5763 39.8349 47.0408C39.7236 48.5054 39.9489 49.9759 40.4936 51.3399C41.0382 52.704 41.8877 53.9253 42.9771 54.9104C44.0665 55.8955 45.3669 56.6183 46.7786 57.0234V57.0234Z" fill="#DBDEE1"/>
<path d="M45.2688 49.8356C45.1192 49.4821 44.8688 49.1805 44.5488 48.9684C44.2288 48.7564 43.8534 48.6433 43.4695 48.6433C43.0857 48.6433 42.7103 48.7564 42.3903 48.9684C42.0703 49.1805 41.8199 49.4821 41.6703 49.8356" stroke="#6E7D88" stroke-width="2" stroke-linecap="round" stroke-linejoin="round"/>
<path d="M39.8054 62.3859C32.4764 62.3859 23.8757 42.842 39.8054 42.842C55.7351 42.842 47.1345 62.3859 39.8054 62.3859Z" stroke="#6E7D88" stroke-width="2" stroke-linecap="round" stroke-linejoin="round"/>
<path d="M41.775 60.1131C41.775 61.2005 39.8056 62.3823 39.8056 62.3823C39.8056 62.3823 37.8363 61.2041 37.8363 60.1131C37.8363 59.0221 38.7183 58.4436 39.8056 58.4436C40.893 58.4436 41.775 59.0294 41.775 60.1131Z" fill="#DBDEE1" stroke="#6E7D88" stroke-width="2" stroke-linecap="round" stroke-linejoin="round"/>
</g>
<defs>
<clipPath id="clip0_119_3602">
<rect width="80" height="80" fill="white"/>
</clipPath>
</defs>
</svg>
