<svg width="80" height="80" viewBox="0 0 80 80" fill="none" xmlns="http://www.w3.org/2000/svg">
<g clip-path="url(#clip0_122_1946)">
<path d="M76.421 52.3957C76.4226 46.964 75.2082 41.6008 72.867 36.6995C70.5258 31.7983 67.1171 27.4833 62.8909 24.071C58.6647 20.6588 53.7283 18.2359 48.4437 16.9801C43.1592 15.7243 37.6605 15.6674 32.3511 16.8136C27.0416 17.9597 22.0561 20.2799 17.7603 23.6039C13.4644 26.9279 9.96705 31.1715 7.52487 36.0232C5.08269 40.875 3.75758 46.2119 3.64674 51.6425C3.5359 57.0731 4.64214 62.4596 6.88432 67.407H73.1786C75.3191 62.6922 76.4247 57.5736 76.421 52.3957Z" fill="#F3F4F5"/>
<path d="M4.09399 67.407H75.0563" stroke="#6E7D88" stroke-width="2" stroke-linecap="round" stroke-linejoin="round"/>
<path d="M0 67.407H2.27443" stroke="#6E7D88" stroke-width="2" stroke-linecap="round" stroke-linejoin="round"/>
<path d="M76.8757 67.407H79.1502" stroke="#6E7D88" stroke-width="2" stroke-linecap="round" stroke-linejoin="round"/>
<path d="M38.9548 40.3902C38.9488 40.0381 38.8048 39.7024 38.5537 39.4554C38.3027 39.2085 37.9647 39.07 37.6125 39.0698H22.5525C22.2003 39.0698 21.8622 39.2082 21.6111 39.4552C21.36 39.7022 21.2161 40.038 21.2103 40.3902C20.9576 55.6294 16.3879 63.5053 16.3879 72.9043H43.7763C43.7763 63.5053 39.2075 55.6294 38.9548 40.3902Z" fill="white"/>
<path d="M38.9548 40.3902C38.9488 40.0381 38.8048 39.7024 38.5537 39.4554C38.3027 39.2085 37.9647 39.07 37.6125 39.0698H22.5525C22.2003 39.0698 21.8622 39.2082 21.6111 39.4552C21.36 39.7022 21.2161 40.038 21.2103 40.3902C20.9576 55.6294 16.3879 63.5053 16.3879 72.9043H43.7763C43.7763 63.5053 39.2075 55.6294 38.9548 40.3902Z" stroke="#6E7D88" stroke-width="2" stroke-linecap="round" stroke-linejoin="round"/>
<path d="M62.2262 72.9042H53.1262L54.8899 28.8635C54.9051 28.4717 55.0713 28.101 55.3538 27.8291C55.6363 27.5572 56.0132 27.4052 56.4053 27.405H58.9463C59.3385 27.4052 59.7154 27.5571 59.9981 27.829C60.2807 28.1009 60.4472 28.4717 60.4625 28.8635L62.2262 72.9042Z" fill="white"/>
<path d="M62.2262 72.9042H53.1262L54.8899 28.8635C54.9051 28.4717 55.0713 28.101 55.3538 27.8291C55.6363 27.5572 56.0132 27.4052 56.4053 27.405H58.9463C59.3385 27.4052 59.7154 27.5571 59.9981 27.829C60.2807 28.1009 60.4472 28.4717 60.4625 28.8635L62.2262 72.9042Z" stroke="#6E7D88" stroke-width="2" stroke-linecap="round" stroke-linejoin="round"/>
<path d="M60.5518 31.0503L60.4643 28.8643C60.4489 28.4724 60.2825 28.1016 59.9998 27.8297C59.7172 27.5579 59.3403 27.4059 58.9481 27.4058H56.4053C56.0132 27.4059 55.6364 27.5579 55.3538 27.8298C55.0713 28.1017 54.9051 28.4725 54.8899 28.8643L54.8025 31.0459L60.5518 31.0503Z" fill="#DBDEE1" stroke="#6E7D88" stroke-width="2" stroke-linecap="round" stroke-linejoin="round"/>
<path d="M54.4385 40.1453H60.9135L60.7683 36.5051H54.5836L54.4385 40.1453Z" fill="#DBDEE1" stroke="#6E7D88" stroke-width="2" stroke-linecap="round" stroke-linejoin="round"/>
<path d="M54.074 49.2443H61.2783L61.1322 45.605H54.2191L54.074 49.2443Z" fill="#DBDEE1" stroke="#6E7D88" stroke-width="2" stroke-linecap="round" stroke-linejoin="round"/>
<path d="M68.8481 63.0698V72.9043" stroke="#6E7D88" stroke-width="2" stroke-linecap="round" stroke-linejoin="round"/>
<path d="M10.3518 63.0696V72.9041" stroke="#6E7D88" stroke-width="2" stroke-linecap="round" stroke-linejoin="round"/>
<path d="M10.3518 64.7065C14.7435 64.7065 18.3037 61.1463 18.3037 56.7546C18.3037 52.3629 14.7435 48.8027 10.3518 48.8027C5.96009 48.8027 2.3999 52.3629 2.3999 56.7546C2.3999 61.1463 5.96009 64.7065 10.3518 64.7065Z" fill="#DBDEE1"/>
<path d="M10.3518 64.7065C14.7435 64.7065 18.3037 61.1463 18.3037 56.7546C18.3037 52.3629 14.7435 48.8027 10.3518 48.8027C5.96009 48.8027 2.3999 52.3629 2.3999 56.7546C2.3999 61.1463 5.96009 64.7065 10.3518 64.7065Z" stroke="#6E7D88" stroke-width="2" stroke-linecap="round" stroke-linejoin="round"/>
<path d="M20.2852 66.3147V72.9043" stroke="#6E7D88" stroke-width="2" stroke-linecap="round" stroke-linejoin="round"/>
<path d="M20.2851 67.4102C23.2275 67.4102 25.6129 65.0249 25.6129 62.0824C25.6129 59.14 23.2275 56.7546 20.2851 56.7546C17.3426 56.7546 14.9573 59.14 14.9573 62.0824C14.9573 65.0249 17.3426 67.4102 20.2851 67.4102Z" fill="#DBDEE1"/>
<path d="M20.2851 67.4102C23.2275 67.4102 25.6129 65.0249 25.6129 62.0824C25.6129 59.14 23.2275 56.7546 20.2851 56.7546C17.3426 56.7546 14.9573 59.14 14.9573 62.0824C14.9573 65.0249 17.3426 67.4102 20.2851 67.4102Z" stroke="#6E7D88" stroke-width="2" stroke-linecap="round" stroke-linejoin="round"/>
<path d="M68.8481 64.7065C73.2399 64.7065 76.8 61.1463 76.8 56.7546C76.8 52.3629 73.2399 48.8027 68.8481 48.8027C64.4564 48.8027 60.8962 52.3629 60.8962 56.7546C60.8962 61.1463 64.4564 64.7065 68.8481 64.7065Z" fill="#DBDEE1"/>
<path d="M68.8481 64.7065C73.2399 64.7065 76.8 61.1463 76.8 56.7546C76.8 52.3629 73.2399 48.8027 68.8481 48.8027C64.4564 48.8027 60.8962 52.3629 60.8962 56.7546C60.8962 61.1463 64.4564 64.7065 68.8481 64.7065Z" stroke="#6E7D88" stroke-width="2" stroke-linecap="round" stroke-linejoin="round"/>
<path d="M63.9103 60.0222H36.4748C36.2428 60.0222 36.0204 60.1143 35.8565 60.2783C35.6925 60.4423 35.6003 60.6647 35.6003 60.8966V72.9041H64.7847V60.8966C64.7847 60.6647 64.6926 60.4423 64.5286 60.2783C64.3646 60.1143 64.1422 60.0222 63.9103 60.0222Z" fill="#DBDEE1"/>
<path d="M63.9103 60.0222H36.4748C36.2428 60.0222 36.0204 60.1143 35.8565 60.2783C35.6925 60.4423 35.6003 60.6647 35.6003 60.8966V72.9041H64.7847V60.8966C64.7847 60.6647 64.6926 60.4423 64.5286 60.2783C64.3646 60.1143 64.1422 60.0222 63.9103 60.0222Z" stroke="#6E7D88" stroke-width="2" stroke-linecap="round" stroke-linejoin="round"/>
<path d="M58.4092 63.6309H54.7804C54.2975 63.6309 53.906 64.0223 53.906 64.5053V68.1341C53.906 68.617 54.2975 69.0085 54.7804 69.0085H58.4092C58.8921 69.0085 59.2836 68.617 59.2836 68.1341V64.5053C59.2836 64.0223 58.8921 63.6309 58.4092 63.6309Z" fill="white" stroke="#6E7D88" stroke-width="2" stroke-linecap="round" stroke-linejoin="round"/>
<path d="M58.4092 63.6309H54.7804C54.2975 63.6309 53.906 64.0223 53.906 64.5053V68.1341C53.906 68.617 54.2975 69.0085 54.7804 69.0085H58.4092C58.8921 69.0085 59.2836 68.617 59.2836 68.1341V64.5053C59.2836 64.0223 58.8921 63.6309 58.4092 63.6309Z" stroke="#6E7D88" stroke-width="2" stroke-linecap="round" stroke-linejoin="round"/>
<path d="M45.3641 63.6309H41.7353C41.2523 63.6309 40.8608 64.0223 40.8608 64.5053V68.1341C40.8608 68.617 41.2523 69.0085 41.7353 69.0085H45.3641C45.847 69.0085 46.2385 68.617 46.2385 68.1341V64.5053C46.2385 64.0223 45.847 63.6309 45.3641 63.6309Z" fill="white" stroke="#6E7D88" stroke-width="2" stroke-linecap="round" stroke-linejoin="round"/>
<path d="M45.3641 63.6309H41.7353C41.2523 63.6309 40.8608 64.0223 40.8608 64.5053V68.1341C40.8608 68.617 41.2523 69.0085 41.7353 69.0085H45.3641C45.847 69.0085 46.2385 68.617 46.2385 68.1341V64.5053C46.2385 64.0223 45.847 63.6309 45.3641 63.6309Z" stroke="#6E7D88" stroke-width="2" stroke-linecap="round" stroke-linejoin="round"/>
<path d="M38.929 33.2123C46.7748 33.2123 53.1351 26.852 53.1351 19.0062C53.1351 11.1603 46.7748 4.80005 38.929 4.80005C31.0832 4.80005 24.7229 11.1603 24.7229 19.0062C24.7229 26.852 31.0832 33.2123 38.929 33.2123Z" fill="white" stroke="#6E7D88" stroke-width="2" stroke-linecap="round" stroke-linejoin="round"/>
<path d="M32.123 11.7507C32.123 11.7507 30.2197 20.2653 34.4092 24.8051C36.71 27.2988 40.794 27.3961 42.4152 22.9055C47.0214 21.6482 47.328 16.5225 44.3904 14.823C41.1088 12.9225 37.5179 16.3915 32.123 11.7507Z" fill="#DBDEE1"/>
<path d="M32.123 11.7507C32.123 11.7507 30.2197 20.2653 34.4092 24.8051C36.71 27.2988 40.794 27.3961 42.4152 22.9055C47.0214 21.6482 47.328 16.5225 44.3904 14.823C41.1088 12.9225 37.5179 16.3915 32.123 11.7507Z" stroke="#6E7D88" stroke-width="2" stroke-linecap="round" stroke-linejoin="round"/>
<path d="M47.3345 30.4591C46.2164 27.1949 43.3042 21.0648 36.7129 18.6621" stroke="#6E7D88" stroke-width="2" stroke-linecap="round" stroke-linejoin="round"/>
</g>
<defs>
<clipPath id="clip0_122_1946">
<rect width="80" height="80" fill="white"/>
</clipPath>
</defs>
</svg>
