<svg width="80" height="80" viewBox="0 0 80 80" fill="none" xmlns="http://www.w3.org/2000/svg">
<g clip-path="url(#clip0_122_2027)">
<path d="M76.7816 46.3864C76.7823 40.8969 75.5543 35.4768 73.1875 30.5237C70.8208 25.5706 67.3754 21.2101 63.104 17.7619C58.8326 14.3137 53.8435 11.8654 48.5027 10.5964C43.1619 9.32737 37.6047 9.26993 32.2388 10.4282C26.8729 11.5866 21.8343 13.9313 17.4926 17.2904C13.1508 20.6496 9.616 24.938 7.14738 29.8411C4.67876 34.7442 3.33893 40.1377 3.22615 45.6261C3.11337 51.1144 4.23051 56.5584 6.49563 61.5588H73.5044C75.6679 56.7934 76.7854 51.6199 76.7816 46.3864Z" fill="#F3F4F5"/>
<path d="M4.13794 61.5588H75.8621" stroke="#6E7D88" stroke-width="2" stroke-linecap="round" stroke-linejoin="round"/>
<path d="M0 61.5588H2.29885" stroke="#6E7D88" stroke-width="2" stroke-linecap="round" stroke-linejoin="round"/>
<path d="M77.7012 61.5588H80" stroke="#6E7D88" stroke-width="2" stroke-linecap="round" stroke-linejoin="round"/>
<path d="M19.3693 52.8895C18.8392 52.8087 18.3303 52.6242 17.8716 52.3465C17.4129 52.0688 17.0135 51.7034 16.6962 51.2711L15.555 49.719C15.3719 49.4699 15.0974 49.3038 14.7919 49.2571C14.4863 49.2103 14.1747 49.2868 13.9256 49.4698L13.2341 49.9783C12.9853 50.1615 12.8193 50.436 12.7726 50.7415C12.7259 51.0469 12.8022 51.3584 12.9849 51.6077L14.126 53.1654C14.7672 54.038 15.0358 55.1294 14.8727 56.1999C14.7092 57.2702 14.9774 58.3617 15.6185 59.2344L20.2824 65.5792L26.7072 60.8573L22.0433 54.5125C21.7262 54.0795 21.3268 53.7132 20.8679 53.4347C20.4091 53.1562 19.8998 52.971 19.3693 52.8895Z" fill="#DBDEE1"/>
<path d="M19.3693 52.8895C18.8392 52.8087 18.3303 52.6242 17.8716 52.3465C17.4129 52.0688 17.0135 51.7034 16.6962 51.2711L15.555 49.719C15.3719 49.4699 15.0974 49.3038 14.7919 49.2571C14.4863 49.2103 14.1747 49.2868 13.9256 49.4698L13.2341 49.9783C12.9853 50.1615 12.8193 50.436 12.7726 50.7415C12.7259 51.0469 12.8022 51.3584 12.9849 51.6077L14.126 53.1654C14.7672 54.038 15.0358 55.1294 14.8727 56.1999C14.7092 57.2702 14.9774 58.3617 15.6185 59.2344L20.2824 65.5792L26.7072 60.8573L22.0433 54.5125C21.7262 54.0795 21.3268 53.7132 20.8679 53.4347C20.4091 53.1562 19.8998 52.971 19.3693 52.8895V52.8895Z" stroke="#6E7D88" stroke-width="2" stroke-linecap="round" stroke-linejoin="round"/>
<path d="M61.156 70.8886C68.0521 70.8886 73.6424 70.1055 73.6424 69.1396C73.6424 68.1737 68.0521 67.3906 61.156 67.3906C54.2599 67.3906 48.6696 68.1737 48.6696 69.1396C48.6696 70.1055 54.2599 70.8886 61.156 70.8886Z" fill="#F3F4F5"/>
<path d="M20.0947 70.8886C26.9908 70.8886 32.5811 70.1055 32.5811 69.1396C32.5811 68.1737 26.9908 67.3906 20.0947 67.3906C13.1986 67.3906 7.60828 68.1737 7.60828 69.1396C7.60828 70.1055 13.1986 70.8886 20.0947 70.8886Z" fill="#F3F4F5"/>
<path d="M49.3867 17.3125H29.7656C29.0947 17.3695 28.4607 17.6432 27.9591 18.0922C27.4575 18.5413 27.1155 19.1413 26.9849 19.8017L24.8865 29.901H54.2658L52.1674 19.8017C51.7306 18.3148 50.812 17.3125 49.3867 17.3125Z" fill="white"/>
<path d="M52.8672 66.279H26.2851L24.9196 37.5985C24.8975 37.1425 24.7396 36.7035 24.4662 36.3378L22.7881 34.1006H56.3679L54.686 36.3378C54.412 36.7028 54.2541 37.1417 54.2327 37.5976L52.8672 66.279Z" fill="white"/>
<path d="M52.8672 66.279H26.2851L24.9196 37.5985C24.8975 37.1425 24.7396 36.7035 24.4662 36.3378L22.7881 34.1006H56.3679L54.686 36.3378C54.412 36.7028 54.2541 37.1417 54.2327 37.5976L52.8672 66.279Z" stroke="#6E7D88" stroke-width="2" stroke-linecap="round" stroke-linejoin="round"/>
<path d="M55.4483 29.9009H23.7076C23.4638 29.9009 23.2299 29.9978 23.0574 30.1702C22.885 30.3427 22.7881 30.5765 22.7881 30.8204V34.0986H56.3679V30.8204C56.3679 30.5765 56.271 30.3427 56.0985 30.1702C55.9261 29.9978 55.6922 29.9009 55.4483 29.9009Z" fill="white" stroke="#6E7D88" stroke-width="2" stroke-linecap="round" stroke-linejoin="round"/>
<path d="M49.3867 17.3125H29.7656C29.0947 17.3695 28.4607 17.6432 27.9591 18.0922C27.4575 18.5413 27.1155 19.1413 26.9849 19.8017L24.8865 29.901H54.2658L52.1674 19.8017C51.7306 18.3148 50.812 17.3125 49.3867 17.3125Z" stroke="#6E7D88" stroke-width="2" stroke-linecap="round" stroke-linejoin="round"/>
<path d="M46.5721 25.7068H32.5813V29.9036H46.5721V25.7068Z" fill="#DBDEE1" stroke="#6E7D88" stroke-width="2" stroke-linecap="round" stroke-linejoin="round"/>
<path d="M46.8966 22.1647C46.798 21.9678 46.6465 21.8022 46.4591 21.6866C46.2717 21.5709 46.0557 21.5098 45.8355 21.51H33.3141C33.0939 21.5098 32.8779 21.5709 32.6905 21.6866C32.503 21.8022 32.3515 21.9678 32.2529 22.1647L31.326 24.0158C31.2361 24.1935 31.1932 24.3914 31.2016 24.5905C31.2099 24.7896 31.2692 24.9832 31.3737 25.1529C31.4782 25.3225 31.6245 25.4625 31.7986 25.5595C31.9726 25.6565 32.1686 25.7072 32.3679 25.7068H46.7835C46.9828 25.7071 47.1787 25.6563 47.3528 25.5593C47.5268 25.4623 47.6731 25.3224 47.7777 25.1528C47.8822 24.9832 47.9416 24.7897 47.9501 24.5906C47.9586 24.3916 47.916 24.1936 47.8263 24.0158L46.8966 22.1647Z" fill="white" stroke="#6E7D88" stroke-width="2" stroke-linecap="round" stroke-linejoin="round"/>
<path d="M39.5761 60.6825C45.3712 60.6825 50.069 55.9847 50.069 50.1897C50.069 44.3946 45.3712 39.6968 39.5761 39.6968C33.7811 39.6968 29.0833 44.3946 29.0833 50.1897C29.0833 55.9847 33.7811 60.6825 39.5761 60.6825Z" fill="white" stroke="#6E7D88" stroke-width="2" stroke-linecap="round" stroke-linejoin="round"/>
<path d="M34.1564 48.7901C34.4367 47.7061 35.0357 46.731 35.8759 45.9908C36.7162 45.2507 37.7591 44.7795 38.8699 44.6383C39.9807 44.497 41.1083 44.692 42.1071 45.1982C43.1059 45.7045 43.9299 46.4986 44.4727 47.478L45.1725 48.7911" stroke="#6E7D88" stroke-width="2" stroke-linecap="round" stroke-linejoin="round"/>
<path d="M41.6746 48.0914L45.1725 48.7911L45.8713 45.2932" stroke="#6E7D88" stroke-width="2" stroke-linecap="round" stroke-linejoin="round"/>
<path d="M44.9958 51.5891C44.7155 52.6732 44.1165 53.6483 43.2763 54.3884C42.436 55.1286 41.3931 55.5997 40.2823 55.741C39.1715 55.8823 38.0439 55.6872 37.0451 55.181C36.0463 54.6748 35.2223 53.8807 34.6795 52.9013L33.9797 51.5891" stroke="#6E7D88" stroke-width="2" stroke-linecap="round" stroke-linejoin="round"/>
<path d="M37.4777 52.288L33.9798 51.5891L33.28 55.0861" stroke="#6E7D88" stroke-width="2" stroke-linecap="round" stroke-linejoin="round"/>
<path d="M28.1637 69.124H12.515C12.2711 69.124 12.0372 69.0271 11.8648 68.8546C11.6923 68.6822 11.5955 68.4483 11.5955 68.2044V62.8279H29.0833V68.2044C29.0833 68.4483 28.9864 68.6822 28.8139 68.8546C28.6415 69.0271 28.4076 69.124 28.1637 69.124Z" fill="white"/>
<path d="M28.1637 69.124H12.515C12.2711 69.124 12.0372 69.0271 11.8648 68.8546C11.6923 68.6822 11.5955 68.4483 11.5955 68.2044V62.8279H29.0833V68.2044C29.0833 68.4483 28.9864 68.6822 28.8139 68.8546C28.6415 69.0271 28.4076 69.124 28.1637 69.124Z" stroke="#6E7D88" stroke-width="2" stroke-linecap="round" stroke-linejoin="round"/>
<path d="M11.2883 57.846L9.60091 61.2216C9.51628 61.3908 9.4763 61.5788 9.48475 61.7678C9.49321 61.9568 9.54983 62.1405 9.64923 62.3014C9.74864 62.4624 9.88753 62.5952 10.0527 62.6874C10.2179 62.7796 10.4039 62.828 10.5931 62.8281H30.0874C30.2766 62.8282 30.4627 62.7798 30.628 62.6877C30.7934 62.5956 30.9324 62.4628 31.0319 62.3018C31.1314 62.1408 31.1881 61.9571 31.1966 61.768C31.2051 61.579 31.1651 61.3909 31.0805 61.2216L29.3903 57.846C29.298 57.6617 29.1562 57.5067 28.9808 57.3984C28.8055 57.2901 28.6034 57.2327 28.3972 57.2327H12.2814C12.0752 57.2327 11.8732 57.2901 11.6978 57.3984C11.5224 57.5067 11.3806 57.6617 11.2883 57.846Z" fill="white" stroke="#6E7D88" stroke-width="2" stroke-linecap="round" stroke-linejoin="round"/>
<path d="M69.6552 63.0145C69.6552 68.037 65.5844 69.077 60.5619 69.077C55.5394 69.077 51.4677 68.037 51.4677 63.0145C51.4677 57.9919 55.5394 50.8894 60.5619 50.8894C65.5844 50.8894 69.6552 57.9919 69.6552 63.0145Z" fill="#DBDEE1"/>
<path d="M59.1623 53.6876L56.7807 46.5446C56.7435 46.4294 56.7389 46.3062 56.7672 46.1886C56.7956 46.0709 56.8559 45.9634 56.9415 45.8778C57.027 45.7922 57.1346 45.7319 57.2522 45.7036C57.3699 45.6752 57.4931 45.6798 57.6082 45.717C59.5228 46.3552 61.5926 46.3552 63.5071 45.717C63.6225 45.6791 63.7462 45.6738 63.8644 45.7018C63.9826 45.7298 64.0908 45.79 64.1769 45.8756C64.2631 45.9613 64.3238 46.0691 64.3525 46.1872C64.3812 46.3053 64.3766 46.429 64.3393 46.5446L61.9568 53.6913L59.1623 53.6876Z" fill="#DBDEE1" stroke="#6E7D88" stroke-width="2" stroke-linecap="round" stroke-linejoin="round"/>
<path d="M69.6552 63.0145C69.6552 68.037 65.5844 69.077 60.5619 69.077C55.5394 69.077 51.4677 68.037 51.4677 63.0145C51.4677 57.9919 55.5394 50.8894 60.5619 50.8894C65.5844 50.8894 69.6552 57.9919 69.6552 63.0145Z" stroke="#6E7D88" stroke-width="2" stroke-linecap="round" stroke-linejoin="round"/>
<path d="M60.5618 50.8894C60.5618 50.8894 58.4625 51.6765 58.4625 55.0862" stroke="#6E7D88" stroke-width="2" stroke-linecap="round" stroke-linejoin="round"/>
<path d="M60.5619 50.8894C60.5619 50.8894 62.6603 51.6765 62.6603 55.0862" stroke="#6E7D88" stroke-width="2" stroke-linecap="round" stroke-linejoin="round"/>
</g>
<defs>
<clipPath id="clip0_122_2027">
<rect width="80" height="80" fill="white"/>
</clipPath>
</defs>
</svg>
