<svg width="80" height="80" viewBox="0 0 80 80" fill="none" xmlns="http://www.w3.org/2000/svg">
<path d="M39.6854 78.3998C59.3939 78.3998 75.3708 62.4229 75.3708 42.7144C75.3708 23.0059 59.3939 7.02905 39.6854 7.02905C19.9769 7.02905 4 23.0059 4 42.7144C4 62.4229 19.9769 78.3998 39.6854 78.3998Z" fill="#F3F4F5"/>
<path d="M40.6196 69.6241C54.2101 69.6241 65.2274 68.3998 65.2274 66.8897C65.2274 65.3795 54.2101 64.1553 40.6196 64.1553C27.0291 64.1553 16.0118 65.3795 16.0118 66.8897C16.0118 68.3998 27.0291 69.6241 40.6196 69.6241Z" fill="#DBDEE1"/>
<path d="M62.2208 52.7699C62.2208 52.3978 62.1219 52.0324 61.9345 51.7109L58.6933 46.1565H22.5458L19.3047 51.7109C19.1172 52.0324 19.0184 52.3978 19.0183 52.7699V57.8292C19.0183 58.6509 19.3447 59.439 19.9258 60.0201C20.5069 60.6011 21.295 60.9276 22.1167 60.9276H59.1224C59.5294 60.9277 59.9323 60.8476 60.3083 60.692C60.6843 60.5363 61.0259 60.3081 61.3136 60.0203C61.6013 59.7326 61.8296 59.391 61.9852 59.015C62.1409 58.6391 62.2209 58.2361 62.2208 57.8292V52.7699Z" fill="white" stroke="#6E7D88" stroke-width="2" stroke-linecap="round" stroke-linejoin="round"/>
<path d="M54.9918 36.5472L54.3468 34.8691C54.188 34.4566 53.9079 34.1019 53.5435 33.8517C53.1792 33.6015 52.7476 33.4676 52.3056 33.4675H28.9316C28.4899 33.4679 28.0587 33.602 27.6947 33.8522C27.3307 34.1024 27.0509 34.4569 26.8922 34.8691L26.2472 36.5436L54.9918 36.5472Z" fill="white" stroke="#6E7D88" stroke-width="2" stroke-linecap="round" stroke-linejoin="round"/>
<path d="M58.6933 46.1563L54.9918 36.5471H26.2472L22.5458 46.1563H58.6933Z" fill="#DBDEE1"/>
<path d="M58.6933 46.1563L54.9918 36.5471H26.2472L22.5458 46.1563H58.6933Z" stroke="#6E7D88" stroke-width="2" stroke-linecap="round" stroke-linejoin="round"/>
<path d="M26.2482 57.6464C26.9394 57.6471 27.6029 57.3745 28.094 56.8881C28.6023 56.3011 28.8814 55.5502 28.88 54.7737V52.1946H19.0995C19.0456 52.382 19.0183 52.5759 19.0183 52.7709V57.6473L26.2482 57.6464Z" fill="white" stroke="#6E7D88" stroke-width="2" stroke-linecap="round" stroke-linejoin="round"/>
<path d="M19.0183 52.77C20.4511 54.1391 22.148 55.2016 24.0053 55.8925C25.4075 56.3074 26.854 56.5542 28.3144 56.6276C28.6767 56.0776 28.873 55.435 28.88 54.7764V52.1946H19.0995C19.0457 52.3817 19.0184 52.5754 19.0183 52.77Z" fill="#DBDEE1" stroke="#6E7D88" stroke-width="2" stroke-linecap="round" stroke-linejoin="round"/>
<path d="M54.9909 57.6464C54.2997 57.6471 53.6362 57.3745 53.1451 56.8881C52.6368 56.3011 52.3577 55.5502 52.3591 54.7737V52.1946H62.1405C62.1936 52.3821 62.2207 52.576 62.2208 52.7709V57.6473L54.9909 57.6464Z" fill="white" stroke="#6E7D88" stroke-width="2" stroke-linecap="round" stroke-linejoin="round"/>
<path d="M62.2208 52.77C60.788 54.1391 59.0911 55.2016 57.2338 55.8925C55.8316 56.3074 54.3851 56.5542 52.9247 56.6276C52.5624 56.0776 52.3661 55.435 52.3591 54.7764V52.1946H62.1405C62.1935 52.3818 62.2206 52.5754 62.2208 52.77Z" fill="#DBDEE1" stroke="#6E7D88" stroke-width="2" stroke-linecap="round" stroke-linejoin="round"/>
<path d="M22.1167 60.9274C21.6151 60.9272 21.1212 60.8047 20.6777 60.5706V64.206C20.6752 64.3489 20.7011 64.491 20.7541 64.6238C20.807 64.7566 20.8858 64.8775 20.986 64.9796C21.0861 65.0816 21.2055 65.1627 21.3373 65.2181C21.4691 65.2736 21.6106 65.3022 21.7536 65.3024H26.1464C26.2901 65.3026 26.4324 65.2743 26.5651 65.2194C26.6979 65.1645 26.8185 65.0839 26.9201 64.9823C27.0217 64.8808 27.1023 64.7601 27.1572 64.6274C27.2121 64.4946 27.2403 64.3523 27.2402 64.2087V60.9274H22.1167Z" fill="#DBDEE1" stroke="#6E7D88" stroke-width="2" stroke-linecap="round" stroke-linejoin="round"/>
<path d="M59.1224 60.9274C59.6239 60.9272 60.1179 60.8047 60.5614 60.5706V64.206C60.5635 64.3486 60.5373 64.4903 60.4843 64.6227C60.4312 64.7552 60.3524 64.8758 60.2524 64.9775C60.1524 65.0792 60.0332 65.1601 59.9017 65.2154C59.7702 65.2708 59.629 65.2994 59.4864 65.2998H55.0935C54.9499 65.2999 54.8076 65.2717 54.6748 65.2167C54.5421 65.1618 54.4214 65.0813 54.3198 64.9797C54.2183 64.8781 54.1377 64.7575 54.0828 64.6247C54.0278 64.492 53.9996 64.3497 53.9998 64.206V60.9274H59.1224Z" fill="#DBDEE1" stroke="#6E7D88" stroke-width="2" stroke-linecap="round" stroke-linejoin="round"/>
<path d="M62.1407 52.1941H19.0996" stroke="#6E7D88" stroke-width="2" stroke-linecap="round" stroke-linejoin="round"/>
<path d="M25.8386 3.85066C25.6925 3.79401 25.5343 3.77611 25.3793 3.79871C25.2242 3.82131 25.0777 3.88363 24.9538 3.97963C24.83 4.07562 24.7331 4.20202 24.6726 4.34653C24.612 4.49104 24.5899 4.64876 24.6084 4.80435C25.0937 8.75026 27.0323 19.1731 34.2202 23.5945C39.1395 26.6197 45.8778 24.897 46.4666 16.7893C53.4359 12.607 51.574 4.06566 45.9786 2.63289C39.9897 1.10288 35.8073 7.75732 25.8386 3.85066Z" fill="#DBDEE1" stroke="#6E7D88" stroke-width="2" stroke-linecap="round" stroke-linejoin="round"/>
<path d="M55.5929 23.7519C51.5703 18.9968 44.7704 13.1908 35.1613 12.4673" stroke="#6E7D88" stroke-width="2" stroke-linecap="round" stroke-linejoin="round"/>
</svg>
